<?xml version="1.0" standalone="no"?>
<!DOCTYPE svg PUBLIC "-//W3C//DTD SVG 20010904//EN"
 "http://www.w3.org/TR/2001/REC-SVG-20010904/DTD/svg10.dtd">
<svg version="1.0" xmlns="http://www.w3.org/2000/svg"
 width="1280.000000pt" height="1280.000000pt" viewBox="0 0 1280.000000 1280.000000"
 preserveAspectRatio="xMidYMid meet">
<metadata>
Created by potrace 1.15, written by Peter Selinger 2001-2017
</metadata>
<g transform="translate(0.000000,1280.000000) scale(0.100000,-0.100000)"
fill="#000000" stroke="none">
<path d="M570 12510 l0 -290 -285 0 -285 0 0 -1020 0 -1020 285 0 285 0 0
-580 0 -580 -285 0 -285 0 0 -1020 0 -1020 285 0 285 0 0 -580 0 -580 -285 0
-285 0 0 -1020 0 -1020 285 0 285 0 0 -580 0 -580 -285 0 -285 0 0 -1020 0
-1020 285 0 285 0 0 -290 0 -290 1020 0 1020 0 0 290 0 290 580 0 580 0 0
-290 0 -290 1020 0 1020 0 0 290 0 290 580 0 580 0 0 -290 0 -290 1020 0 1020
0 0 290 0 290 580 0 580 0 0 -290 0 -290 1020 0 1020 0 0 290 0 290 295 0 295
0 0 1020 0 1020 -295 0 -295 0 0 580 0 580 295 0 295 0 0 1020 0 1020 -295 0
-295 0 0 580 0 580 295 0 295 0 0 1020 0 1020 -295 0 -295 0 0 580 0 580 295
0 295 0 0 1020 0 1020 -295 0 -295 0 0 290 0 290 -1020 0 -1020 0 0 -290 0
-290 -580 0 -580 0 0 290 0 290 -1020 0 -1020 0 0 -290 0 -290 -580 0 -580 0
0 290 0 290 -1020 0 -1020 0 0 -290 0 -290 -580 0 -580 0 0 290 0 290 -1020 0
-1020 0 0 -290z m930 -175 l0 -375 -330 0 -330 0 -2 -332 -3 -333 -383 -3
-382 -2 0 375 0 375 335 0 335 0 0 335 0 335 380 0 380 0 0 -375z m940 40 l0
-335 330 0 330 0 0 -375 0 -375 -380 0 -380 0 0 335 0 335 -335 0 -335 0 0
375 0 375 385 0 385 0 0 -335z m2260 -40 l0 -375 -330 0 -330 0 -2 -332 -3
-333 -382 -3 -383 -2 0 375 0 375 335 0 335 0 0 335 0 335 380 0 380 0 0 -375z
m940 40 l0 -335 330 0 330 0 0 -375 0 -375 -380 0 -380 0 0 335 0 335 -335 0
-335 0 0 375 0 375 385 0 385 0 0 -335z m2260 -40 l0 -375 -330 0 -330 0 -2
-332 -3 -333 -382 -3 -383 -2 0 375 0 375 335 0 335 0 0 335 0 335 380 0 380
0 0 -375z m940 40 l0 -335 330 0 330 0 0 -375 0 -375 -380 0 -380 0 0 335 0
335 -335 0 -335 0 0 375 0 375 385 0 385 0 0 -335z m2260 -40 l0 -375 -330 0
-330 0 -2 -332 -3 -333 -382 -3 -383 -2 0 375 0 375 335 0 335 0 0 335 0 335
380 0 380 0 0 -375z m938 38 l2 -333 330 0 330 0 0 -375 0 -375 -380 0 -380 0
0 335 0 335 -335 0 -335 0 0 375 0 375 383 -2 382 -3 3 -332z m-9868 -1173 l0
-580 -580 0 -580 0 0 580 0 580 580 0 580 0 0 -580z m3200 0 l0 -580 -580 0
-580 0 0 580 0 580 580 0 580 0 0 -580z m3200 0 l0 -580 -580 0 -580 0 0 580
0 580 580 0 580 0 0 -580z m3200 0 l0 -580 -580 0 -580 0 0 580 0 580 580 0
580 0 0 -580z m-10932 -427 l2 -333 330 0 330 0 0 -375 0 -375 -380 0 -380 0
0 335 0 335 -335 0 -335 0 0 375 0 375 383 -2 382 -3 3 -332z m2262 -38 l0
-375 -330 0 -330 0 -2 -332 -3 -333 -382 -3 -383 -2 0 375 0 375 335 0 335 0
0 335 0 335 380 0 380 0 0 -375z m938 38 l2 -333 330 0 330 0 0 -375 0 -375
-380 0 -380 0 0 335 0 335 -335 0 -335 0 0 375 0 375 383 -2 382 -3 3 -332z
m2262 -38 l0 -375 -330 0 -330 0 -2 -332 -3 -333 -382 -3 -383 -2 0 375 0 375
335 0 335 0 0 335 0 335 380 0 380 0 0 -375z m938 38 l2 -333 330 0 330 0 0
-375 0 -375 -380 0 -380 0 0 335 0 335 -335 0 -335 0 0 375 0 375 383 -2 382
-3 3 -332z m2262 -38 l0 -375 -330 0 -330 0 -2 -332 -3 -333 -382 -3 -383 -2
0 375 0 375 335 0 335 0 0 335 0 335 380 0 380 0 0 -375z m938 38 l2 -333 330
0 330 0 0 -375 0 -375 -380 0 -380 0 0 335 0 335 -335 0 -335 0 0 375 0 375
383 -2 382 -3 3 -332z m2262 -38 l0 -375 -330 0 -330 0 -2 -332 -3 -333 -382
-3 -383 -2 0 375 0 375 335 0 335 0 0 335 0 335 380 0 380 0 0 -375z m-8930
-1135 l0 -580 -580 0 -580 0 0 580 0 580 580 0 580 0 0 -580z m3200 0 l0 -580
-580 0 -580 0 0 580 0 580 580 0 580 0 0 -580z m3200 0 l0 -580 -580 0 -580 0
0 580 0 580 580 0 580 0 0 -580z m-8670 -465 l0 -375 -330 0 -330 0 -2 -332
-3 -333 -383 -3 -382 -2 0 375 0 375 335 0 335 0 0 335 0 335 380 0 380 0 0
-375z m938 38 l2 -333 330 0 330 0 0 -375 0 -375 -380 0 -380 0 0 335 0 335
-335 0 -335 0 0 375 0 375 383 -2 382 -3 3 -332z m2262 -38 l0 -375 -330 0
-330 0 -2 -332 -3 -333 -382 -3 -383 -2 0 375 0 375 335 0 335 0 0 335 0 335
380 0 380 0 0 -375z m938 38 l2 -333 330 0 330 0 0 -375 0 -375 -380 0 -380 0
0 335 0 335 -335 0 -335 0 0 375 0 375 383 -2 382 -3 3 -332z m2262 -38 l0
-375 -330 0 -330 0 -2 -332 -3 -333 -382 -3 -383 -2 0 375 0 375 335 0 335 0
0 335 0 335 380 0 380 0 0 -375z m938 38 l2 -333 330 0 330 0 0 -375 0 -375
-380 0 -380 0 0 335 0 335 -335 0 -335 0 0 375 0 375 383 -2 382 -3 3 -332z
m2262 -38 l0 -375 -330 0 -330 0 -2 -332 -3 -333 -382 -3 -383 -2 0 375 0 375
335 0 335 0 0 335 0 335 380 0 380 0 0 -375z m938 38 l2 -333 330 0 330 0 0
-375 0 -375 -380 0 -380 0 0 335 0 335 -335 0 -335 0 0 375 0 375 383 -2 382
-3 3 -332z m-9868 -1173 l0 -580 -580 0 -580 0 0 580 0 580 580 0 580 0 0
-580z m3200 0 l0 -580 -580 0 -580 0 0 580 0 580 580 0 580 0 0 -580z m3200 0
l0 -580 -580 0 -580 0 0 580 0 580 580 0 580 0 0 -580z m3200 0 l0 -580 -580
0 -580 0 0 580 0 580 580 0 580 0 0 -580z m-10932 -427 l2 -333 330 0 330 0 0
-375 0 -375 -380 0 -380 0 0 335 0 335 -335 0 -335 0 0 375 0 375 383 -2 382
-3 3 -332z m2262 -38 l0 -375 -330 0 -330 0 -2 -332 -3 -333 -382 -3 -383 -2
0 375 0 375 335 0 335 0 0 335 0 335 380 0 380 0 0 -375z m938 38 l2 -333 330
0 330 0 0 -375 0 -375 -380 0 -380 0 0 335 0 335 -335 0 -335 0 0 375 0 375
383 -2 382 -3 3 -332z m2262 -38 l0 -375 -330 0 -330 0 -2 -332 -3 -333 -382
-3 -383 -2 0 375 0 375 335 0 335 0 0 335 0 335 380 0 380 0 0 -375z m938 38
l2 -333 330 0 330 0 0 -375 0 -375 -380 0 -380 0 0 335 0 335 -335 0 -335 0 0
375 0 375 383 -2 382 -3 3 -332z m2262 -38 l0 -375 -330 0 -330 0 -2 -332 -3
-333 -382 -3 -383 -2 0 375 0 375 335 0 335 0 0 335 0 335 380 0 380 0 0 -375z
m938 38 l2 -333 330 0 330 0 0 -375 0 -375 -380 0 -380 0 0 335 0 335 -335 0
-335 0 0 375 0 375 383 -2 382 -3 3 -332z m2262 -38 l0 -375 -330 0 -330 0 -2
-332 -3 -333 -382 -3 -383 -2 0 375 0 375 335 0 335 0 0 335 0 335 380 0 380
0 0 -375z m-8930 -1135 l0 -580 -580 0 -580 0 0 580 0 580 580 0 580 0 0 -580z
m3200 0 l0 -580 -580 0 -580 0 0 580 0 580 580 0 580 0 0 -580z m3200 0 l0
-580 -580 0 -580 0 0 580 0 580 580 0 580 0 0 -580z m-8670 -465 l0 -375 -330
0 -330 0 -2 -332 -3 -333 -383 -3 -382 -2 0 375 0 375 335 0 335 0 0 335 0
335 380 0 380 0 0 -375z m938 38 l2 -333 330 0 330 0 0 -375 0 -375 -380 0
-380 0 0 335 0 335 -335 0 -335 0 0 375 0 375 383 -2 382 -3 3 -332z m2262
-38 l0 -375 -330 0 -330 0 -2 -332 -3 -333 -382 -3 -383 -2 0 375 0 375 335 0
335 0 0 335 0 335 380 0 380 0 0 -375z m938 38 l2 -333 330 0 330 0 0 -375 0
-375 -380 0 -380 0 0 335 0 335 -335 0 -335 0 0 375 0 375 383 -2 382 -3 3
-332z m2262 -38 l0 -375 -330 0 -330 0 -2 -332 -3 -333 -382 -3 -383 -2 0 375
0 375 335 0 335 0 0 335 0 335 380 0 380 0 0 -375z m938 38 l2 -333 330 0 330
0 0 -375 0 -375 -380 0 -380 0 0 335 0 335 -335 0 -335 0 0 375 0 375 383 -2
382 -3 3 -332z m2262 -38 l0 -375 -330 0 -330 0 -2 -332 -3 -333 -382 -3 -383
-2 0 375 0 375 335 0 335 0 0 335 0 335 380 0 380 0 0 -375z m938 38 l2 -333
330 0 330 0 0 -375 0 -375 -380 0 -380 0 0 335 0 335 -335 0 -335 0 0 375 0
375 383 -2 382 -3 3 -332z m-9868 -1173 l0 -580 -580 0 -580 0 0 580 0 580
580 0 580 0 0 -580z m3200 0 l0 -580 -580 0 -580 0 0 580 0 580 580 0 580 0 0
-580z m3200 0 l0 -580 -580 0 -580 0 0 580 0 580 580 0 580 0 0 -580z m3200 0
l0 -580 -580 0 -580 0 0 580 0 580 580 0 580 0 0 -580z m-10932 -427 l2 -333
330 0 330 0 0 -375 0 -375 -380 0 -380 0 0 335 0 335 -335 0 -335 0 0 375 0
375 383 -2 382 -3 3 -332z m2262 -38 l0 -375 -330 0 -330 0 -2 -332 -3 -333
-382 -3 -383 -2 0 375 0 375 335 0 335 0 0 335 0 335 380 0 380 0 0 -375z
m938 38 l2 -333 330 0 330 0 0 -375 0 -375 -380 0 -380 0 0 335 0 335 -335 0
-335 0 0 375 0 375 383 -2 382 -3 3 -332z m2262 -38 l0 -375 -330 0 -330 0 -2
-332 -3 -333 -382 -3 -383 -2 0 375 0 375 335 0 335 0 0 335 0 335 380 0 380
0 0 -375z m938 38 l2 -333 330 0 330 0 0 -375 0 -375 -380 0 -380 0 0 335 0
335 -335 0 -335 0 0 375 0 375 383 -2 382 -3 3 -332z m2262 -38 l0 -375 -330
0 -330 0 -2 -332 -3 -333 -382 -3 -383 -2 0 375 0 375 335 0 335 0 0 335 0
335 380 0 380 0 0 -375z m938 38 l2 -333 330 0 330 0 0 -375 0 -375 -380 0
-380 0 0 335 0 335 -335 0 -335 0 0 375 0 375 383 -2 382 -3 3 -332z m2262
-38 l0 -375 -330 0 -330 0 -2 -332 -3 -333 -382 -3 -383 -2 0 375 0 375 335 0
335 0 0 335 0 335 380 0 380 0 0 -375z m-8930 -1135 l0 -580 -580 0 -580 0 0
580 0 580 580 0 580 0 0 -580z m3200 0 l0 -580 -580 0 -580 0 0 580 0 580 580
0 580 0 0 -580z m3200 0 l0 -580 -580 0 -580 0 0 580 0 580 580 0 580 0 0
-580z m-8670 -465 l0 -375 -330 0 -330 0 -2 -332 -3 -333 -383 -3 -382 -2 0
375 0 375 335 0 335 0 0 335 0 335 380 0 380 0 0 -375z m938 38 l2 -333 330 0
330 0 0 -375 0 -375 -380 0 -380 0 0 335 0 335 -335 0 -335 0 0 375 0 375 383
-2 382 -3 3 -332z m2262 -38 l0 -375 -330 0 -330 0 -2 -332 -3 -333 -382 -3
-383 -2 0 375 0 375 335 0 335 0 0 335 0 335 380 0 380 0 0 -375z m938 38 l2
-333 330 0 330 0 0 -375 0 -375 -380 0 -380 0 0 335 0 335 -335 0 -335 0 0
375 0 375 383 -2 382 -3 3 -332z m2262 -38 l0 -375 -330 0 -330 0 -2 -332 -3
-333 -382 -3 -383 -2 0 375 0 375 335 0 335 0 0 335 0 335 380 0 380 0 0 -375z
m938 38 l2 -333 330 0 330 0 0 -375 0 -375 -380 0 -380 0 0 335 0 335 -335 0
-335 0 0 375 0 375 383 -2 382 -3 3 -332z m2262 -38 l0 -375 -330 0 -330 0 -2
-332 -3 -333 -382 -3 -383 -2 0 375 0 375 335 0 335 0 0 335 0 335 380 0 380
0 0 -375z m938 38 l2 -333 330 0 330 0 0 -375 0 -375 -380 0 -380 0 0 335 0
335 -335 0 -335 0 0 375 0 375 383 -2 382 -3 3 -332z m-9868 -1173 l0 -580
-580 0 -580 0 0 580 0 580 580 0 580 0 0 -580z m3200 0 l0 -580 -580 0 -580 0
0 580 0 580 580 0 580 0 0 -580z m3200 0 l0 -580 -580 0 -580 0 0 580 0 580
580 0 580 0 0 -580z m3200 0 l0 -580 -580 0 -580 0 0 580 0 580 580 0 580 0 0
-580z m-10932 -427 l2 -333 330 0 330 0 0 -375 0 -375 -380 0 -380 0 0 335 0
335 -335 0 -335 0 0 375 0 375 383 -2 382 -3 3 -332z m2262 -38 l0 -375 -330
0 -330 0 -2 -333 -3 -332 -382 -3 -383 -2 0 375 0 375 335 0 335 0 0 335 0
335 380 0 380 0 0 -375z m938 38 l2 -333 330 0 330 0 0 -375 0 -375 -380 0
-380 0 0 335 0 335 -335 0 -335 0 0 375 0 375 383 -2 382 -3 3 -332z m2262
-38 l0 -375 -330 0 -330 0 -2 -333 -3 -332 -382 -3 -383 -2 0 375 0 375 335 0
335 0 0 335 0 335 380 0 380 0 0 -375z m938 38 l2 -333 330 0 330 0 0 -375 0
-375 -380 0 -380 0 0 335 0 335 -335 0 -335 0 0 375 0 375 383 -2 382 -3 3
-332z m2262 -38 l0 -375 -330 0 -330 0 -2 -333 -3 -332 -382 -3 -383 -2 0 375
0 375 335 0 335 0 0 335 0 335 380 0 380 0 0 -375z m938 38 l2 -333 330 0 330
0 0 -375 0 -375 -380 0 -380 0 0 335 0 335 -335 0 -335 0 0 375 0 375 383 -2
382 -3 3 -332z m2262 -38 l0 -375 -330 0 -330 0 -2 -333 -3 -332 -382 -3 -383
-2 0 375 0 375 335 0 335 0 0 335 0 335 380 0 380 0 0 -375z"/>
</g>
</svg>
