<?xml version="1.0" standalone="no"?>
<!DOCTYPE svg PUBLIC "-//W3C//DTD SVG 20010904//EN"
 "http://www.w3.org/TR/2001/REC-SVG-20010904/DTD/svg10.dtd">
<svg version="1.0" xmlns="http://www.w3.org/2000/svg"
 width="1108.000000pt" height="1280.000000pt" viewBox="0 0 1108.000000 1280.000000"
 preserveAspectRatio="xMidYMid meet">
<metadata>
Created by potrace 1.15, written by Peter Selinger 2001-2017
</metadata>
<g transform="translate(0.000000,1280.000000) scale(0.100000,-0.100000)"
fill="#000000" stroke="none">
<path d="M1386 12004 c-252 -437 -456 -797 -454 -799 5 -6 1900 442 1918 453
8 5 15 14 15 20 0 6 4 14 9 19 5 5 6 3 2 -4 -11 -19 9 -16 25 4 12 15 12 16
-1 8 -13 -8 -13 -7 -1 8 15 18 26 23 16 7 -12 -20 6 -9 87 51 83 60 118 90 88
74 -13 -8 -13 -7 -1 8 15 18 26 23 16 7 -11 -18 6 -11 44 19 20 15 104 78 188
139 84 60 147 112 140 115 -101 39 -1597 650 -1609 657 -10 6 -19 10 -20 10
-2 0 -209 -358 -462 -796z m530 749 c-3 -3 201 -240 452 -527 422 -481 514
-588 470 -546 -27 27 -948 1080 -948 1085 0 2 7 2 15 -2 9 -3 14 -8 11 -10z
m44 -13 c8 -5 11 -10 5 -10 -5 0 -17 5 -25 10 -8 5 -10 10 -5 10 6 0 17 -5 25
-10z m113 -45 c37 -15 66 -29 64 -31 -4 -5 -148 53 -156 63 -7 7 1 5 92 -32z
m107 -45 c8 -5 11 -10 5 -10 -5 0 -17 5 -25 10 -8 5 -10 10 -5 10 6 0 17 -5
25 -10z m50 -20 c8 -5 11 -10 5 -10 -5 0 -17 5 -25 10 -8 5 -10 10 -5 10 6 0
17 -5 25 -10z m113 -45 c37 -15 66 -29 64 -31 -4 -5 -148 53 -156 63 -7 7 1 5
92 -32z m107 -45 c8 -5 11 -10 5 -10 -5 0 -17 5 -25 10 -8 5 -10 10 -5 10 6 0
17 -5 25 -10z m50 -20 c8 -5 11 -10 5 -10 -5 0 -17 5 -25 10 -8 5 -10 10 -5
10 6 0 17 -5 25 -10z m88 -35 c24 -10 41 -19 39 -22 -3 -2 -29 8 -58 22 -59
27 -50 28 19 0z m82 -35 c8 -5 11 -10 5 -10 -5 0 -17 5 -25 10 -8 5 -10 10 -5
10 6 0 17 -5 25 -10z m50 -20 c8 -5 11 -10 5 -10 -5 0 -17 5 -25 10 -8 5 -10
10 -5 10 6 0 17 -5 25 -10z m50 -20 c8 -5 11 -10 5 -10 -5 0 -17 5 -25 10 -8
5 -10 10 -5 10 6 0 17 -5 25 -10z m88 -35 c24 -10 41 -19 39 -22 -3 -2 -29 8
-58 22 -59 27 -50 28 19 0z m82 -35 c8 -5 11 -10 5 -10 -5 0 -17 5 -25 10 -8
5 -10 10 -5 10 6 0 17 -5 25 -10z m50 -20 c8 -5 11 -10 5 -10 -5 0 -17 5 -25
10 -8 5 -10 10 -5 10 6 0 17 -5 25 -10z m113 -45 c37 -15 66 -29 64 -31 -4 -5
-148 53 -156 63 -7 7 1 5 92 -32z m107 -45 c8 -5 11 -10 5 -10 -5 0 -17 5 -25
10 -8 5 -10 10 -5 10 6 0 17 -5 25 -10z m50 -20 c8 -5 11 -10 5 -10 -5 0 -17
5 -25 10 -8 5 -10 10 -5 10 6 0 17 -5 25 -10z m113 -45 c37 -15 66 -29 64 -31
-4 -5 -148 53 -156 63 -7 7 1 5 92 -32z m96 -38 c-2 -1 -15 -11 -29 -22 l-25
-20 19 23 c11 12 24 22 29 22 6 0 8 -1 6 -3z m-84 -62 c-41 -34 -122 -91 -110
-77 14 15 129 101 135 101 3 0 -8 -11 -25 -24z m-125 -89 c0 -2 -8 -10 -17
-17 -16 -13 -17 -12 -4 4 13 16 21 21 21 13z m-44 -34 c-2 -4 -26 -23 -53 -41
-55 -39 -47 -27 12 18 42 32 49 36 41 23z m-171 -127 c-41 -34 -122 -91 -110
-77 14 15 129 101 135 101 3 0 -8 -11 -25 -24z"/>
<path d="M6525 12464 c-467 -183 -849 -338 -848 -343 2 -6 290 -328 640 -716
351 -388 639 -709 641 -713 2 -8 -1298 -494 -1338 -500 -14 -2 -328 78 -699
177 -370 99 -678 178 -685 174 -8 -5 -1195 -923 -1215 -940 -3 -2 18 -27 46
-56 27 -28 360 -398 738 -822 379 -423 700 -783 714 -798 28 -31 105 -56
-1562 513 -407 138 -740 250 -741 248 -4 -5 342 -2269 347 -2274 3 -3 297 83
653 192 l649 197 784 -107 c431 -59 785 -105 787 -103 2 2 -196 296 -441 652
-245 357 -445 652 -445 655 0 15 1047 2272 1055 2272 4 -1 248 -456 541 -1012
l533 -1011 -622 -787 c-609 -771 -624 -789 -762 -914 -77 -69 -500 -453 -940
-852 -440 -399 -803 -726 -807 -726 -3 0 -4 8 -2 18 11 42 323 1886 320 1889
-2 2 -942 -1590 -972 -1648 -2 -4 138 -64 312 -134 l315 -126 1005 -905 c553
-498 1009 -903 1012 -899 3 3 93 261 199 572 106 311 195 568 198 571 2 3 307
99 677 213 559 174 683 209 733 209 50 0 1018 -47 1335 -65 52 -3 194 -10 315
-16 210 -11 252 -17 224 -34 -8 -6 -10 -4 -4 5 6 10 4 12 -9 7 -17 -7 -559
-321 -836 -486 -80 -47 -325 -174 -545 -281 -220 -108 -407 -200 -416 -205
-13 -8 74 -66 417 -278 239 -148 434 -275 434 -282 0 -14 -638 -2033 -649
-2051 -4 -7 -211 109 -566 318 -633 373 -1494 839 -1508 816 -9 -14 -685
-1612 -683 -1614 1 -1 622 102 1380 229 l1379 231 376 -22 c859 -51 1521 -92
1594 -98 63 -5 76 -4 73 7 -5 15 -11 157 -52 1324 -14 407 -29 742 -33 745
-33 22 -1329 1075 -1327 1077 2 2 621 -161 1375 -362 755 -201 1376 -363 1381
-360 6 4 10 2 10 -3 0 -5 10 -12 22 -15 18 -5 19 -4 7 7 -22 21 -1479 1076
-1485 1076 -3 0 -2 -6 2 -12 5 -9 2 -9 -9 1 -18 15 -23 26 -7 16 6 -3 10 -4
10 -2 0 3 -70 55 -155 116 -85 62 -156 115 -159 119 -3 5 2 113 9 242 24 401
26 444 49 845 13 215 22 391 20 393 -1 2 -24 -12 -51 -31 -230 -162 -1955
-1338 -1959 -1335 -2 3 -96 180 -208 394 -188 359 -202 390 -187 405 9 9 614
405 1344 879 874 567 1324 866 1315 871 -7 4 -656 217 -1442 473 -786 256
-1431 468 -1434 471 -7 7 -85 -42 663 410 795 480 740 446 728 454 -5 3 -19
23 -32 44 -12 20 -27 35 -31 32 -5 -3 -12 0 -16 6 -5 8 -3 9 6 4 8 -5 11 -3 8
6 -3 8 -10 14 -16 14 -5 0 -14 4 -19 9 -5 5 -2 6 6 1 9 -5 12 -3 9 6 -3 8 -10
14 -16 14 -5 0 -14 4 -19 9 -5 5 -2 6 6 1 9 -5 12 -3 9 6 -3 8 -10 14 -16 14
-5 0 -14 4 -19 9 -5 5 -2 6 6 1 9 -5 12 -3 9 6 -3 8 -10 14 -16 14 -5 0 -14 4
-19 9 -5 5 -2 6 6 1 9 -5 12 -3 9 6 -3 8 -10 14 -16 14 -5 0 -14 4 -19 9 -5 5
-2 6 6 1 9 -5 12 -3 9 6 -3 8 -10 14 -16 14 -5 0 -14 4 -19 9 -5 5 -2 6 6 1 9
-5 12 -3 9 6 -3 8 -10 14 -16 14 -5 0 -14 4 -19 9 -5 5 -2 6 6 1 9 -5 12 -3 9
6 -3 8 -10 14 -16 14 -5 0 -14 4 -19 9 -5 5 -2 6 6 1 9 -5 12 -3 9 6 -3 8 -10
14 -16 14 -5 0 -14 4 -19 9 -5 5 -2 6 6 1 9 -5 12 -3 9 6 -3 8 -10 14 -16 14
-5 0 -14 4 -19 9 -5 5 -2 6 6 1 9 -5 12 -3 9 6 -3 8 -10 14 -16 14 -5 0 -14 4
-19 9 -5 5 -2 6 6 1 9 -5 12 -3 9 6 -3 8 -10 14 -16 14 -5 0 -14 4 -19 9 -5 5
-2 6 6 1 9 -5 12 -3 9 6 -3 8 -10 14 -16 14 -5 0 -14 4 -19 9 -5 5 -2 6 6 1 9
-5 12 -3 9 6 -3 8 -10 14 -16 14 -5 0 -14 4 -19 9 -5 5 -2 6 6 1 9 -5 12 -3 9
6 -3 8 -10 14 -16 14 -5 0 -14 4 -19 9 -5 5 -2 6 6 1 9 -5 12 -3 9 6 -3 8 -10
14 -16 14 -5 0 -14 4 -19 9 -5 5 -2 6 6 1 9 -5 12 -3 9 6 -3 8 -10 14 -16 14
-5 0 -14 4 -19 9 -5 5 -2 6 6 1 9 -5 12 -3 9 6 -3 8 -10 14 -16 14 -5 0 -14 4
-19 9 -5 5 -2 6 6 1 9 -5 12 -3 9 6 -3 8 -10 14 -16 14 -5 0 -14 4 -19 9 -5 5
-3 6 5 2 6 -4 12 -5 12 -1 0 7 -319 487 -333 500 -7 7 -7 5 -2 -4 5 -10 4 -12
-4 -7 -6 4 -9 11 -6 16 8 13 -14 52 -25 45 -5 -3 -12 0 -16 6 -5 8 -3 9 6 4 8
-5 11 -3 8 6 -3 8 -10 14 -15 14 -6 0 -15 4 -20 9 -5 5 -3 6 5 2 18 -11 15 9
-5 25 -14 12 -16 12 -8 0 5 -10 4 -12 -4 -7 -6 4 -9 11 -6 16 8 13 -14 52 -25
45 -5 -3 -12 0 -16 6 -5 8 -3 9 6 4 8 -5 11 -3 8 6 -3 8 -10 14 -15 14 -6 0
-15 4 -20 9 -5 5 -2 6 6 1 9 -5 12 -3 9 6 -3 8 -10 14 -15 14 -6 0 -15 4 -20
9 -5 5 -2 6 6 1 9 -5 12 -3 9 6 -3 8 -10 14 -15 14 -6 0 -15 4 -20 9 -5 5 -2
6 6 1 9 -5 12 -3 9 6 -3 8 -10 14 -15 14 -6 0 -15 4 -20 9 -5 5 -2 6 6 1 9 -5
12 -3 9 6 -3 8 -10 14 -15 14 -6 0 -15 4 -20 9 -5 5 -2 6 6 1 9 -5 12 -3 9 6
-3 8 -10 14 -15 14 -6 0 -15 4 -20 9 -5 5 -2 6 6 1 9 -5 12 -3 9 6 -3 8 -10
14 -15 14 -6 0 -15 4 -20 9 -5 5 -2 6 6 1 9 -5 12 -3 9 6 -3 8 -10 14 -15 14
-6 0 -15 4 -20 9 -5 5 -2 6 6 1 9 -5 12 -3 9 6 -3 8 -10 14 -15 14 -6 0 -15 4
-20 9 -5 5 -2 6 6 1 9 -5 12 -3 9 6 -3 8 -10 14 -15 14 -6 0 -15 4 -20 9 -5 5
-2 6 6 1 9 -5 12 -3 9 6 -3 8 -10 13 -16 12 -6 -2 -9 3 -6 11 4 10 32 16 92
20 83 6 691 26 722 24 8 0 188 34 398 76 211 43 386 76 388 73 2 -2 -171 -39
-386 -82 -214 -43 -390 -81 -390 -84 0 -3 14 -22 31 -41 17 -19 27 -28 23 -20
-7 13 -5 13 9 1 18 -15 23 -26 7 -16 -19 12 -9 -6 37 -65 42 -55 65 -78 47
-47 -5 8 -2 8 9 -2 18 -15 23 -26 7 -16 -5 3 -10 4 -10 1 0 -3 118 -157 261
-343 144 -186 264 -343 266 -349 2 -7 -8 -35 -22 -64 -14 -29 -24 -59 -21 -67
3 -8 2 -12 -2 -9 -13 8 -246 -469 -237 -484 5 -8 4 -11 -3 -6 -14 8 -46 -50
-38 -70 3 -8 2 -13 -2 -10 -8 5 -52 -75 -52 -94 0 -8 1409 -1710 1457 -1760 8
-8 -2 23 -22 70 -20 47 -68 160 -107 252 -42 99 -75 165 -81 161 -6 -3 -7 -1
-3 6 10 16 -124 332 -137 324 -6 -4 -7 -1 -3 6 10 16 -13 73 -27 64 -6 -4 -7
-1 -3 6 10 16 -13 73 -27 64 -6 -4 -7 -1 -3 6 10 16 -13 73 -27 64 -6 -4 -7
-1 -2 6 10 17 -64 193 -78 184 -6 -4 -7 -1 -3 6 10 16 -13 73 -27 64 -6 -4 -7
-1 -3 6 10 16 -13 73 -27 64 -6 -4 -7 -1 -3 6 10 15 -463 1133 -475 1125 -5
-3 -6 2 -3 11 4 8 1 22 -6 30 -7 8 -9 15 -4 15 5 0 380 -398 834 -885 453
-486 826 -883 828 -881 3 3 -201 744 -284 1032 l-14 51 -128 65 c-70 36 -374
193 -677 348 -302 156 -552 284 -554 286 -3 2 6 16 20 31 18 21 19 24 4 13
-20 -15 -20 -14 -1 8 20 23 32 30 21 12 -3 -5 -3 -10 0 -10 8 0 175 141 175
147 0 3 -8 -1 -17 -8 -10 -7 -7 -1 6 14 25 28 43 38 21 12 -22 -27 6 -16 31
12 18 21 19 24 4 13 -15 -11 -14 -8 4 13 25 28 43 38 21 12 -22 -27 6 -16 31
12 18 21 19 24 4 13 -15 -11 -14 -8 4 13 25 28 43 38 21 12 -7 -8 -10 -15 -7
-15 8 0 367 301 367 307 0 3 -8 -1 -17 -8 -10 -7 -7 -1 6 14 25 28 43 38 21
12 -22 -27 6 -16 31 12 18 21 19 24 4 13 -15 -11 -14 -8 4 13 25 28 43 38 21
12 -22 -27 6 -16 31 12 18 21 19 24 4 13 -15 -11 -14 -8 4 13 26 29 42 38 20
10 -8 -9 -9 -14 -4 -12 15 6 485 400 485 406 0 3 -8 -1 -17 -8 -10 -7 -7 -1 6
14 25 28 43 38 21 12 -29 -35 8 -8 132 97 73 61 132 115 130 120 -1 4 1 7 6 6
9 -3 62 37 62 47 0 6 -907 1583 -917 1595 -3 3 -8 -2 -13 -10 -38 -68 -1444
-2050 -1450 -2043 -4 4 -89 458 -189 1008 -202 1103 -191 1045 -200 1044 -3
-1 -388 -151 -856 -335z m3584 -1288 c-7 -7 -921 -188 -925 -183 -4 4 876 184
910 186 11 1 17 -1 15 -3z m-39 -29 c0 -2 -12 -14 -27 -28 l-28 -24 24 28 c23
25 31 32 31 24z m-60 -50 c0 -2 -12 -14 -27 -28 l-28 -24 24 28 c23 25 31 32
31 24z m-60 -50 c0 -2 -12 -14 -27 -28 l-28 -24 24 28 c23 25 31 32 31 24z
m-60 -50 c0 -2 -12 -14 -27 -28 l-28 -24 24 28 c23 25 31 32 31 24z m-727 -14
c-7 -2 -19 -2 -25 0 -7 3 -2 5 12 5 14 0 19 -2 13 -5z m-50 -10 c-7 -2 -19 -2
-25 0 -7 3 -2 5 12 5 14 0 19 -2 13 -5z m-50 -10 c-7 -2 -19 -2 -25 0 -7 3 -2
5 12 5 14 0 19 -2 13 -5z m-50 -10 c-7 -2 -19 -2 -25 0 -7 3 -2 5 12 5 14 0
19 -2 13 -5z m-50 -10 c-7 -2 -19 -2 -25 0 -7 3 -2 5 12 5 14 0 19 -2 13 -5z
m-50 -10 c-7 -2 -19 -2 -25 0 -7 3 -2 5 12 5 14 0 19 -2 13 -5z m-50 -10 c-7
-2 -19 -2 -25 0 -7 3 -2 5 12 5 14 0 19 -2 13 -5z m-50 -10 c-7 -2 -19 -2 -25
0 -7 3 -2 5 12 5 14 0 19 -2 13 -5z m-50 -10 c-7 -2 -19 -2 -25 0 -7 3 -2 5
12 5 14 0 19 -2 13 -5z m-50 -10 c-7 -2 -19 -2 -25 0 -7 3 -2 5 12 5 14 0 19
-2 13 -5z m1057 3 c0 -3 -55 -51 -122 -107 -68 -56 -114 -93 -103 -81 18 19
217 190 223 191 1 1 2 -1 2 -3z m-1107 -13 c-7 -2 -19 -2 -25 0 -7 3 -2 5 12
5 14 0 19 -2 13 -5z m-50 -10 c-7 -2 -19 -2 -25 0 -7 3 -2 5 12 5 14 0 19 -2
13 -5z m-788 -193 c10 -11 16 -20 13 -20 -3 0 -13 9 -23 20 -10 11 -16 20 -13
20 3 0 13 -9 23 -20z m1695 7 c0 -2 -12 -14 -27 -28 l-28 -24 24 28 c23 25 31
32 31 24z m-2630 -46 c-8 -5 -26 -11 -40 -15 -21 -5 -20 -3 5 9 32 15 60 20
35 6z m2570 -4 c0 -2 -12 -14 -27 -28 l-28 -24 24 28 c23 25 31 32 31 24z
m-2650 -26 c-8 -5 -26 -11 -40 -15 -21 -5 -20 -3 5 9 32 15 60 20 35 6z m1100
-41 c17 -22 29 -40 27 -40 -3 0 -20 18 -37 40 -17 22 -29 40 -27 40 3 0 20
-18 37 -40z m-1180 11 c-8 -5 -26 -11 -40 -15 -21 -5 -20 -3 5 9 32 15 60 20
35 6z m2670 6 c0 -2 -12 -14 -27 -28 l-28 -24 24 28 c23 25 31 32 31 24z
m-2780 -47 c-8 -5 -19 -10 -25 -10 -5 0 -3 5 5 10 8 5 20 10 25 10 6 0 3 -5
-5 -10z m-80 -29 c-8 -5 -26 -11 -40 -15 -21 -5 -20 -3 5 9 32 15 60 20 35 6z
m-80 -30 c-8 -5 -26 -11 -40 -15 -21 -5 -20 -3 5 9 32 15 60 20 35 6z m1550
-41 c17 -22 29 -40 27 -40 -3 0 -20 18 -37 40 -17 22 -29 40 -27 40 3 0 20
-18 37 -40z m-1630 11 c-8 -5 -26 -11 -40 -15 -21 -5 -20 -3 5 9 32 15 60 20
35 6z m-80 -30 c-8 -5 -26 -11 -40 -15 -21 -5 -20 -3 5 9 32 15 60 20 35 6z
m-110 -41 c-8 -5 -19 -10 -25 -10 -5 0 -3 5 5 10 8 5 20 10 25 10 6 0 3 -5 -5
-10z m1890 -30 c17 -22 29 -40 27 -40 -3 0 -20 18 -37 40 -17 22 -29 40 -27
40 3 0 20 -18 37 -40z m1080 36 c0 -3 -42 -39 -92 -82 -51 -42 -84 -68 -73
-56 19 20 157 140 163 141 1 1 2 -1 2 -3z m-3050 -36 c-8 -5 -19 -10 -25 -10
-5 0 -3 5 5 10 8 5 20 10 25 10 6 0 3 -5 -5 -10z m-80 -29 c-8 -5 -26 -11 -40
-15 -21 -5 -20 -3 5 9 32 15 60 20 35 6z m-80 -30 c-8 -5 -26 -11 -40 -15 -21
-5 -20 -3 5 9 32 15 60 20 35 6z m2215 -51 c25 -33 44 -60 41 -60 -3 0 -26 27
-51 60 -25 33 -44 60 -41 60 3 0 26 -27 51 -60z m-2295 21 c-8 -5 -26 -11 -40
-15 -21 -5 -20 -3 5 9 32 15 60 20 35 6z m-110 -41 c-8 -5 -19 -10 -25 -10 -5
0 -3 5 5 10 8 5 20 10 25 10 6 0 3 -5 -5 -10z m3210 7 c0 -2 -12 -14 -27 -28
l-28 -24 24 28 c23 25 31 32 31 24z m-3104 -155 c-2 -1 -53 22 -114 52 -61 29
-109 56 -106 58 2 3 53 -20 113 -51 60 -31 108 -57 107 -59z m3044 105 c0 -2
-12 -14 -27 -28 l-28 -24 24 28 c23 25 31 32 31 24z m-645 -67 c25 -33 44 -60
41 -60 -3 0 -26 27 -51 60 -25 33 -44 60 -41 60 3 0 26 -27 51 -60z m-900 -42
c16 -24 22 -38 14 -31 -15 12 -53 73 -46 73 2 0 17 -19 32 -42z m-1251 -107
c119 -57 214 -106 212 -108 -2 -2 -104 46 -227 107 -123 60 -219 109 -213 107
7 -1 109 -49 228 -106z m2251 19 c25 -33 44 -60 41 -60 -3 0 -26 27 -51 60
-25 33 -44 60 -41 60 3 0 26 -27 51 -60z m-930 -16 c9 -15 12 -23 6 -20 -11 7
-35 46 -28 46 3 0 12 -12 22 -26z m1235 12 c0 -2 -28 -27 -62 -56 l-63 -52 60
56 c60 55 65 60 65 52z m-1176 -103 c20 -32 27 -46 14 -31 -26 30 -62 88 -55
88 2 0 21 -26 41 -57z m962 -10 c21 -26 33 -44 27 -40 -14 9 -77 87 -70 87 3
0 22 -21 43 -47z m-1996 -68 c58 -30 101 -54 95 -54 -5 0 -57 24 -115 54 -58
30 -100 54 -95 54 6 0 57 -24 115 -54z m1090 -5 c6 -11 8 -20 6 -20 -3 0 -10
9 -16 20 -6 11 -8 20 -6 20 3 0 10 -9 16 -20z m53 -79 c27 -46 14 -38 -18 12
-16 23 -22 37 -14 30 8 -6 22 -25 32 -42z m-913 -26 c58 -30 101 -54 95 -54
-5 0 -57 24 -115 54 -58 30 -100 54 -95 54 6 0 57 -24 115 -54z m1850 -60 c0
-5 -5 -3 -10 5 -5 8 -10 20 -10 25 0 6 5 3 10 -5 5 -8 10 -19 10 -25z m-1620
-50 c58 -30 101 -54 95 -54 -5 0 -57 24 -115 54 -58 30 -100 54 -95 54 6 0 57
-24 115 -54z m1650 -20 c0 -5 -5 -3 -10 5 -5 8 -10 20 -10 25 0 6 5 3 10 -5 5
-8 10 -19 10 -25z m-259 -151 c-38 -77 -70 -136 -70 -132 -1 11 133 278 137
274 2 -2 -28 -66 -67 -142z m289 81 c0 -5 -5 -3 -10 5 -5 8 -10 20 -10 25 0 6
5 3 10 -5 5 -8 10 -19 10 -25z m-1440 -25 c52 -27 91 -49 85 -49 -5 0 -53 22
-105 49 -52 27 -90 49 -85 49 6 0 53 -22 105 -49z m220 -105 c58 -30 101 -54
95 -54 -5 0 -57 24 -115 54 -58 30 -100 54 -95 54 6 0 57 -24 115 -54z m1270
10 c0 -5 -5 -3 -10 5 -5 8 -10 20 -10 25 0 6 5 3 10 -5 5 -8 10 -19 10 -25z
m30 -70 c0 -5 -5 -3 -10 5 -5 8 -10 20 -10 25 0 6 5 3 10 -5 5 -8 10 -19 10
-25z m-1060 -55 c52 -27 91 -49 85 -49 -5 0 -53 22 -105 49 -52 27 -90 49 -85
49 6 0 53 -22 105 -49z m1090 -15 c0 -5 -5 -3 -10 5 -5 8 -10 20 -10 25 0 6 5
3 10 -5 5 -8 10 -19 10 -25z m-492 -10 c-6 -14 -13 -23 -15 -21 -5 5 15 46 22
46 3 0 -1 -11 -7 -25z m522 -60 c0 -5 -5 -3 -10 5 -5 8 -10 20 -10 25 0 6 5 3
10 -5 5 -8 10 -19 10 -25z m-890 -25 c52 -27 91 -49 85 -49 -5 0 -53 22 -105
49 -52 27 -90 49 -85 49 6 0 53 -22 105 -49z m167 -77 c12 -5 14 -3 8 7 -6 9
-4 11 4 6 7 -5 10 -10 7 -14 -3 -3 2 -11 12 -19 9 -8 -3 -4 -28 8 -67 32 -69
39 -3 12z m773 -18 c0 -5 -5 -3 -10 5 -5 8 -10 20 -10 25 0 6 5 3 10 -5 5 -8
10 -19 10 -25z m-669 -18 c-10 -9 -11 -8 -5 6 3 10 9 15 12 12 3 -3 0 -11 -7
-18z m699 -52 c0 -5 -5 -3 -10 5 -5 8 -10 20 -10 25 0 6 5 3 10 -5 5 -8 10
-19 10 -25z m-640 -45 c23 -28 40 -50 37 -50 -2 0 -26 26 -53 57 -27 31 -44
54 -37 50 6 -4 30 -30 53 -57z m670 -25 c0 -5 -5 -3 -10 5 -5 8 -10 20 -10 25
0 6 5 3 10 -5 5 -8 10 -19 10 -25z m-600 -60 c13 -14 21 -25 18 -25 -2 0 -15
11 -28 25 -13 14 -21 25 -18 25 2 0 15 -11 28 -25z m630 -10 c0 -5 -5 -3 -10
5 -5 8 -10 20 -10 25 0 6 5 3 10 -5 5 -8 10 -19 10 -25z m-580 -50 c13 -14 21
-25 18 -25 -2 0 -15 11 -28 25 -13 14 -21 25 -18 25 2 0 15 -11 28 -25z m80
-95 c23 -28 40 -50 37 -50 -2 0 -26 26 -53 57 -27 31 -44 54 -37 50 6 -4 30
-30 53 -57z m560 5 c0 -5 -5 -3 -10 5 -5 8 -10 20 -10 25 0 6 5 3 10 -5 5 -8
10 -19 10 -25z m-5876 -974 c433 -492 783 -898 779 -902 -4 -4 -21 -10 -38
-13 -29 -6 -29 -6 3 7 l33 13 -796 904 c-438 498 -800 904 -804 903 -4 -1 -8
5 -8 13 0 21 -48 75 831 -925z m5386 884 c13 -14 21 -25 18 -25 -2 0 -15 11
-28 25 -13 14 -21 25 -18 25 2 0 15 -11 28 -25z m-6203 -22 c-3 -10 -5 -4 -5
12 0 17 2 24 5 18 2 -7 2 -21 0 -30z m6253 -38 c13 -14 21 -25 18 -25 -2 0
-15 11 -28 25 -13 14 -21 25 -18 25 2 0 15 -11 28 -25z m-6243 -32 c-3 -10 -5
-4 -5 12 0 17 2 24 5 18 2 -7 2 -21 0 -30z m6293 -28 c13 -14 21 -25 18 -25
-2 0 -15 11 -28 25 -13 14 -21 25 -18 25 2 0 15 -11 28 -25z m-6283 -42 c-3
-10 -5 -4 -5 12 0 17 2 24 5 18 2 -7 2 -21 0 -30z m6333 -18 c13 -14 21 -25
18 -25 -2 0 -15 11 -28 25 -13 14 -21 25 -18 25 2 0 15 -11 28 -25z m-6323
-42 c-3 -10 -5 -4 -5 12 0 17 2 24 5 18 2 -7 2 -21 0 -30z m6803 -18 c0 -5 -5
-3 -10 5 -5 8 -10 20 -10 25 0 6 5 3 10 -5 5 -8 10 -19 10 -25z m-400 -35 c23
-28 40 -50 37 -50 -2 0 -26 26 -53 57 -27 31 -44 54 -37 50 6 -4 30 -30 53
-57z m-6393 -17 c-3 -10 -5 -4 -5 12 0 17 2 24 5 18 2 -7 2 -21 0 -30z m10
-60 c-3 -10 -5 -4 -5 12 0 17 2 24 5 18 2 -7 2 -21 0 -30z m6453 -8 c13 -14
21 -25 18 -25 -2 0 -15 11 -28 25 -13 14 -21 25 -18 25 2 0 15 -11 28 -25z
m-6443 -62 c-3 -10 -5 -4 -5 12 0 17 2 24 5 18 2 -7 2 -21 0 -30z m6493 2 c13
-14 21 -25 18 -25 -2 0 -15 11 -28 25 -13 14 -21 25 -18 25 2 0 15 -11 28 -25z
m-6483 -72 c-3 -10 -5 -2 -5 17 0 19 2 27 5 18 2 -10 2 -26 0 -35z m6533 12
c13 -14 21 -25 18 -25 -2 0 -15 11 -28 25 -13 14 -21 25 -18 25 2 0 15 -11 28
-25z m-6523 -82 c-3 -10 -5 -2 -5 17 0 19 2 27 5 18 2 -10 2 -26 0 -35z m6649
-70 c54 -65 118 -142 142 -170 24 -29 42 -53 39 -53 -3 0 -49 53 -103 118 -54
64 -118 141 -142 170 -24 28 -42 52 -39 52 3 0 49 -53 103 -117z m-6639 10
c-3 -10 -5 -4 -5 12 0 17 2 24 5 18 2 -7 2 -21 0 -30z m6913 -18 c0 -5 -5 -3
-10 5 -5 8 -10 20 -10 25 0 6 5 3 10 -5 5 -8 10 -19 10 -25z m-6903 -42 c-3
-10 -5 -4 -5 12 0 17 2 24 5 18 2 -7 2 -21 0 -30z m6932 -28 c0 -5 -6 1 -14
15 -8 14 -14 30 -14 35 0 6 6 -1 14 -15 8 -14 14 -29 14 -35z m-6922 -42 c-3
-10 -5 -4 -5 12 0 17 2 24 5 18 2 -7 2 -21 0 -30z m6943 -8 c0 -5 -5 -3 -10 5
-5 8 -10 20 -10 25 0 6 5 3 10 -5 5 -8 10 -19 10 -25z m-6933 -62 c-3 -10 -5
-4 -5 12 0 17 2 24 5 18 2 -7 2 -21 0 -30z m6963 -8 c0 -5 -5 -3 -10 5 -5 8
-10 20 -10 25 0 6 5 3 10 -5 5 -8 10 -19 10 -25z m-6953 -52 c-3 -10 -5 -4 -5
12 0 17 2 24 5 18 2 -7 2 -21 0 -30z m6843 -43 c23 -28 40 -50 37 -50 -2 0
-26 26 -53 57 -27 31 -44 54 -37 50 6 -4 30 -30 53 -57z m-6833 -27 c-3 -10
-5 -2 -5 17 0 19 2 27 5 18 2 -10 2 -26 0 -35z m10 -65 c-3 -7 -5 -2 -5 12 0
14 2 19 5 13 2 -7 2 -19 0 -25z m6953 -63 c34 -41 59 -75 57 -75 -3 0 -38 39
-78 88 -40 48 -66 81 -57 74 9 -7 44 -46 78 -87z m70 40 c0 -5 -5 -3 -10 5 -5
8 -10 20 -10 25 0 6 5 3 10 -5 5 -8 10 -19 10 -25z m-7013 -42 c-3 -10 -5 -4
-5 12 0 17 2 24 5 18 2 -7 2 -21 0 -30z m7033 -8 c0 -5 -5 -3 -10 5 -5 8 -10
20 -10 25 0 6 5 3 10 -5 5 -8 10 -19 10 -25z m-7023 -52 c-3 -10 -5 -4 -5 12
0 17 2 24 5 18 2 -7 2 -21 0 -30z m7062 -38 c0 -5 -6 1 -14 15 -8 14 -14 30
-14 35 0 6 6 -1 14 -15 8 -14 14 -29 14 -35z m23 -67 c5 1 7 -2 3 -8 -3 -5 -2
-10 3 -10 5 0 14 -12 21 -27 15 -34 9 -28 -68 67 -42 51 -44 55 -11 20 24 -25
47 -44 52 -42z m-7075 25 c-3 -10 -5 -2 -5 17 0 19 2 27 5 18 2 -10 2 -26 0
-35z m7073 -8 c0 -5 -5 -3 -10 5 -5 8 -10 20 -10 25 0 6 5 3 10 -5 5 -8 10
-19 10 -25z m-7063 -52 c-3 -10 -5 -4 -5 12 0 17 2 24 5 18 2 -7 2 -21 0 -30z
m10 -60 c-3 -10 -5 -4 -5 12 0 17 2 24 5 18 2 -7 2 -21 0 -30z m10 -70 c-3
-10 -5 -4 -5 12 0 17 2 24 5 18 2 -7 2 -21 0 -30z m10 -70 c-3 -10 -5 -4 -5
12 0 17 2 24 5 18 2 -7 2 -21 0 -30z m10 -60 c-3 -10 -5 -4 -5 12 0 17 2 24 5
18 2 -7 2 -21 0 -30z m10 -70 c-3 -10 -5 -2 -5 17 0 19 2 27 5 18 2 -10 2 -26
0 -35z m10 -70 c-3 -10 -5 -2 -5 17 0 19 2 27 5 18 2 -10 2 -26 0 -35z m10
-60 c-3 -10 -5 -4 -5 12 0 17 2 24 5 18 2 -7 2 -21 0 -30z m10 -70 c-3 -10 -5
-2 -5 17 0 19 2 27 5 18 2 -10 2 -26 0 -35z m1190 -19 c-3 -3 -12 -4 -19 -1
-8 3 -5 6 6 6 11 1 17 -2 13 -5z m-1180 -41 c-3 -10 -5 -4 -5 12 0 17 2 24 5
18 2 -7 2 -21 0 -30z m1080 11 c-3 -3 -12 -4 -19 -1 -8 3 -5 6 6 6 11 1 17 -2
13 -5z m-112 -34 c-11 -5 -27 -9 -35 -9 -9 0 -8 4 5 9 11 5 27 9 35 9 9 0 8
-4 -5 -9z m-958 -47 c-3 -10 -5 -4 -5 12 0 17 2 24 5 18 2 -7 2 -21 0 -30z
m840 11 c-3 -3 -12 -4 -19 -1 -8 3 -5 6 6 6 11 1 17 -2 13 -5z m-100 -30 c-3
-3 -12 -4 -19 -1 -8 3 -5 6 6 6 11 1 17 -2 13 -5z m-730 -41 c-3 -10 -5 -4 -5
12 0 17 2 24 5 18 2 -7 2 -21 0 -30z m618 7 c-11 -5 -27 -9 -35 -9 -9 0 -8 4
5 9 11 5 27 9 35 9 9 0 8 -4 -5 -9z m-608 -77 c-3 -10 -5 -2 -5 17 0 19 2 27
5 18 2 -10 2 -26 0 -35z m490 41 c-3 -3 -12 -4 -19 -1 -8 3 -5 6 6 6 11 1 17
-2 13 -5z m3158 -589 c352 -279 646 -513 654 -520 11 -11 -28 -67 -238 -339
-139 -179 -254 -326 -257 -326 -3 0 16 28 43 63 275 351 454 590 447 596 -5 5
-308 246 -674 536 -366 290 -674 536 -685 548 -24 25 -68 60 710 -558z m-3258
559 c-3 -3 -12 -4 -19 -1 -8 3 -5 6 6 6 11 1 17 -2 13 -5z m2530 -36 c-3 -7
-5 -2 -5 12 0 14 2 19 5 13 2 -7 2 -19 0 -25z m-2642 2 c-11 -5 -27 -9 -35 -9
-9 0 -8 4 5 9 11 5 27 9 35 9 9 0 8 -4 -5 -9z m-268 -47 c-3 -10 -5 -2 -5 17
0 19 2 27 5 18 2 -10 2 -26 0 -35z m2931 -38 c0 -16 -2 -15 -8 5 -4 14 -8 34
-8 45 0 16 2 15 8 -5 4 -14 8 -34 8 -45z m-2781 49 c-3 -3 -12 -4 -19 -1 -8 3
-5 6 6 6 11 1 17 -2 13 -5z m-112 -34 c-27 -12 -43 -12 -25 0 8 5 22 9 30 9
10 0 8 -3 -5 -9z m2902 -72 c-3 -7 -5 -2 -5 12 0 14 2 19 5 13 2 -7 2 -19 0
-25z m10 -50 c-3 -7 -5 -2 -5 12 0 14 2 19 5 13 2 -7 2 -19 0 -25z m10 -50
c-3 -7 -5 -2 -5 12 0 14 2 19 5 13 2 -7 2 -19 0 -25z m21 -88 c0 -22 -1 -22
-8 5 -4 17 -8 39 -8 50 0 16 2 15 8 -5 4 -14 8 -36 8 -50z m32 -143 c12 -60
20 -111 17 -113 -4 -4 -47 198 -47 220 0 27 10 -10 30 -107z m38 -197 c0 -22
-1 -22 -8 5 -4 17 -8 39 -8 50 0 16 2 15 8 -5 4 -14 8 -36 8 -50z m20 -100 c0
-22 -1 -22 -8 5 -4 17 -8 39 -8 50 0 16 2 15 8 -5 4 -14 8 -36 8 -50z m36
-175 c4 -31 2 -27 -9 15 -8 30 -16 73 -19 95 -4 31 -2 27 9 -15 8 -30 16 -73
19 -95z m13 -77 c-3 -7 -5 -2 -5 12 0 14 2 19 5 13 2 -7 2 -19 0 -25z m21 -88
c0 -22 -1 -22 -8 5 -4 17 -8 39 -8 50 0 16 2 15 8 -5 4 -14 8 -36 8 -50z m9
-62 c-3 -7 -5 -2 -5 12 0 14 2 19 5 13 2 -7 2 -19 0 -25z m31 -133 c0 -11 -6
3 -13 30 -7 28 -13 59 -13 70 0 11 6 -2 13 -30 7 -27 13 -59 13 -70z m30 -155
c-1 -23 -26 82 -26 110 0 14 6 -2 14 -35 7 -33 13 -67 12 -75z m9 -52 c-3 -7
-5 -2 -5 12 0 14 2 19 5 13 2 -7 2 -19 0 -25z m37 -168 c3 -25 -3 -7 -14 40
-10 47 -19 92 -18 100 1 22 26 -88 32 -140z m460 -141 c-43 -55 -83 -103 -88
-107 -6 -3 20 34 58 83 79 103 98 125 103 125 2 0 -31 -45 -73 -101z m-436 26
c0 -16 -2 -15 -8 5 -4 14 -8 34 -8 45 0 16 2 15 8 -5 4 -14 8 -34 8 -45z m9
-57 c-3 -7 -5 -2 -5 12 0 14 2 19 5 13 2 -7 2 -19 0 -25z m10 -50 c-3 -7 -5
-2 -5 12 0 14 2 19 5 13 2 -7 2 -19 0 -25z m10 -50 c-3 -7 -5 -2 -5 12 0 14 2
19 5 13 2 -7 2 -19 0 -25z m237 -89 c-43 -55 -83 -103 -88 -107 -6 -3 20 34
58 83 79 103 98 125 103 125 2 0 -31 -45 -73 -101z m-227 39 c-3 -7 -5 -2 -5
12 0 14 2 19 5 13 2 -7 2 -19 0 -25z m3471 -62 c50 -37 92 -70 92 -73 0 -3
-15 6 -32 19 -18 14 -66 48 -105 77 -40 29 -73 55 -73 58 0 3 6 1 13 -4 6 -6
54 -40 105 -77z m-158 69 c0 -2 -10 -9 -22 -15 -22 -11 -22 -10 -4 4 21 17 26
19 26 11z m-3303 -57 c-3 -7 -5 -2 -5 12 0 14 2 19 5 13 2 -7 2 -19 0 -25z
m3253 27 c0 -2 -13 -11 -30 -20 -38 -19 -40 -11 -2 9 31 17 32 18 32 11z m-70
-40 c0 -2 -10 -9 -22 -15 -22 -11 -22 -10 -4 4 21 17 26 19 26 11z m-3155 -95
l17 -90 35 45 c19 25 36 45 39 45 2 0 -14 -25 -37 -55 -23 -30 -42 -55 -43
-55 -1 0 -2 8 -3 18 -1 9 -9 50 -17 90 -17 76 -19 92 -12 92 2 0 11 -40 21
-90z m3105 65 c0 -2 -13 -11 -30 -20 -38 -19 -40 -11 -2 9 31 17 32 18 32 11z
m-70 -40 c0 -2 -10 -9 -22 -15 -22 -11 -22 -10 -4 4 21 17 26 19 26 11z m560
-51 c0 -3 -13 4 -30 16 -16 12 -30 24 -30 26 0 3 14 -4 30 -16 17 -12 30 -24
30 -26z m-630 11 c0 -2 -10 -9 -22 -15 -22 -11 -22 -10 -4 4 21 17 26 19 26
11z m-50 -30 c0 -2 -10 -9 -22 -15 -22 -11 -22 -10 -4 4 21 17 26 19 26 11z
m790 -61 c0 -3 -13 4 -30 16 -16 12 -30 24 -30 26 0 3 14 -4 30 -16 17 -12 30
-24 30 -26z m-840 31 c0 -2 -13 -11 -30 -20 -38 -19 -40 -11 -2 9 31 17 32 18
32 11z m-70 -40 c0 -2 -10 -9 -22 -15 -22 -11 -22 -10 -4 4 21 17 26 19 26 11z
m1018 -69 c3 -5 -16 6 -42 24 -26 19 -50 39 -54 44 -3 5 16 -6 42 -24 26 -19
50 -39 54 -44z m-1068 39 c0 -2 -13 -11 -30 -20 -38 -19 -40 -11 -2 9 31 17
32 18 32 11z m-70 -40 c0 -2 -13 -11 -30 -20 -38 -19 -40 -11 -2 9 31 17 32
18 32 11z m1248 -79 c3 -5 -16 6 -42 24 -26 19 -50 39 -54 44 -3 5 16 -6 42
-24 26 -19 50 -39 54 -44z m-1318 39 c0 -2 -10 -9 -22 -15 -22 -11 -22 -10 -4
4 21 17 26 19 26 11z m-50 -30 c0 -2 -13 -11 -30 -20 -38 -19 -40 -11 -2 9 31
17 32 18 32 11z m1478 -89 c3 -5 -16 6 -42 24 -26 19 -50 39 -54 44 -3 5 16
-6 42 -24 26 -19 50 -39 54 -44z m-1548 49 c0 -2 -10 -9 -22 -15 -22 -11 -22
-10 -4 4 21 17 26 19 26 11z m-50 -30 c0 -2 -10 -9 -22 -15 -22 -11 -22 -10
-4 4 21 17 26 19 26 11z m-56 -40 c-4 -8 -14 -15 -23 -15 -14 1 -13 3 3 15 25
19 27 19 20 0z m1764 -59 c3 -5 -16 6 -42 24 -26 19 -50 39 -54 44 -3 5 16 -6
42 -24 26 -19 50 -39 54 -44z m-1731 38 c-3 -3 -12 -4 -19 -1 -8 3 -5 6 6 6
11 1 17 -2 13 -5z m58 -14 c13 -5 14 -9 5 -9 -8 0 -24 4 -35 9 -13 5 -14 9 -5
9 8 0 24 -4 35 -9z m52 -16 c-3 -3 -12 -4 -19 -1 -8 3 -5 6 6 6 11 1 17 -2 13
-5z m40 -10 c-3 -3 -12 -4 -19 -1 -8 3 -5 6 6 6 11 1 17 -2 13 -5z m58 -14
c13 -5 14 -9 5 -9 -8 0 -24 4 -35 9 -13 5 -14 9 -5 9 8 0 24 -4 35 -9z m1633
-64 c3 -5 -16 6 -42 24 -26 19 -50 39 -54 44 -3 5 16 -6 42 -24 26 -19 50 -39
54 -44z m-1581 48 c-3 -3 -12 -4 -19 -1 -8 3 -5 6 6 6 11 1 17 -2 13 -5z m40
-10 c-3 -3 -12 -4 -19 -1 -8 3 -5 6 6 6 11 1 17 -2 13 -5z m58 -14 c13 -5 14
-9 5 -9 -8 0 -24 4 -35 9 -13 5 -14 9 -5 9 8 0 24 -4 35 -9z m52 -16 c-3 -3
-12 -4 -19 -1 -8 3 -5 6 6 6 11 1 17 -2 13 -5z m40 -10 c-3 -3 -12 -4 -19 -1
-8 3 -5 6 6 6 11 1 17 -2 13 -5z m58 -14 c13 -5 14 -9 5 -9 -8 0 -24 4 -35 9
-13 5 -14 9 -5 9 8 0 24 -4 35 -9z m1443 -64 c3 -5 -16 6 -42 24 -26 19 -50
39 -54 44 -3 5 16 -6 42 -24 26 -19 50 -39 54 -44z m-1391 48 c-3 -3 -12 -4
-19 -1 -8 3 -5 6 6 6 11 1 17 -2 13 -5z m40 -10 c-3 -3 -12 -4 -19 -1 -8 3 -5
6 6 6 11 1 17 -2 13 -5z m58 -14 c13 -5 14 -9 5 -9 -8 0 -24 4 -35 9 -13 5
-14 9 -5 9 8 0 24 -4 35 -9z m52 -16 c-3 -3 -12 -4 -19 -1 -8 3 -5 6 6 6 11 1
17 -2 13 -5z m40 -10 c-3 -3 -12 -4 -19 -1 -8 3 -5 6 6 6 11 1 17 -2 13 -5z
m58 -14 c13 -5 14 -9 5 -9 -8 0 -24 4 -35 9 -13 5 -14 9 -5 9 8 0 24 -4 35 -9z
m1253 -64 c3 -5 -16 6 -42 24 -26 19 -50 39 -54 44 -3 5 16 -6 42 -24 26 -19
50 -39 54 -44z m-1201 48 c-3 -3 -12 -4 -19 -1 -8 3 -5 6 6 6 11 1 17 -2 13
-5z m40 -10 c-3 -3 -12 -4 -19 -1 -8 3 -5 6 6 6 11 1 17 -2 13 -5z m58 -14
c13 -5 14 -9 5 -9 -8 0 -24 4 -35 9 -13 5 -14 9 -5 9 8 0 24 -4 35 -9z m52
-16 c-3 -3 -12 -4 -19 -1 -8 3 -5 6 6 6 11 1 17 -2 13 -5z m40 -10 c-3 -3 -12
-4 -19 -1 -8 3 -5 6 6 6 11 1 17 -2 13 -5z m58 -14 c13 -5 14 -9 5 -9 -8 0
-24 4 -35 9 -13 5 -14 9 -5 9 8 0 24 -4 35 -9z m1063 -64 c3 -5 -16 6 -42 24
-26 19 -50 39 -54 44 -3 5 16 -6 42 -24 26 -19 50 -39 54 -44z m-1011 48 c-3
-3 -12 -4 -19 -1 -8 3 -5 6 6 6 11 1 17 -2 13 -5z m40 -10 c-3 -3 -12 -4 -19
-1 -8 3 -5 6 6 6 11 1 17 -2 13 -5z m40 -10 c-3 -3 -12 -4 -19 -1 -8 3 -5 6 6
6 11 1 17 -2 13 -5z m70 -20 c-3 -3 -12 -4 -19 -1 -8 3 -5 6 6 6 11 1 17 -2
13 -5z m40 -10 c-3 -3 -12 -4 -19 -1 -8 3 -5 6 6 6 11 1 17 -2 13 -5z m58 -14
c13 -5 14 -9 5 -9 -8 0 -24 4 -35 9 -13 5 -14 9 -5 9 8 0 24 -4 35 -9z m921
-96 c16 -14 2 -7 -32 16 -33 23 -74 53 -90 66 -16 14 -2 7 32 -16 33 -23 74
-53 90 -66z m-869 80 c-3 -3 -12 -4 -19 -1 -8 3 -5 6 6 6 11 1 17 -2 13 -5z
m40 -10 c-3 -3 -12 -4 -19 -1 -8 3 -5 6 6 6 11 1 17 -2 13 -5z m58 -14 c13 -5
14 -9 5 -9 -8 0 -24 4 -35 9 -13 5 -14 9 -5 9 8 0 24 -4 35 -9z m52 -16 c-3
-3 -12 -4 -19 -1 -8 3 -5 6 6 6 11 1 17 -2 13 -5z m40 -10 c-3 -3 -12 -4 -19
-1 -8 3 -5 6 6 6 11 1 17 -2 13 -5z m58 -14 c13 -5 14 -9 5 -9 -8 0 -24 4 -35
9 -13 5 -14 9 -5 9 8 0 24 -4 35 -9z m52 -16 c-3 -3 -12 -4 -19 -1 -8 3 -5 6
6 6 11 1 17 -2 13 -5z m40 -10 c-3 -3 -12 -4 -19 -1 -8 3 -5 6 6 6 11 1 17 -2
13 -5z m40 -10 c-3 -3 -12 -4 -19 -1 -8 3 -5 6 6 6 11 1 17 -2 13 -5z m621
-78 c3 -5 -16 6 -42 24 -26 19 -50 39 -54 44 -3 5 16 -6 42 -24 26 -19 50 -39
54 -44z m-551 58 c-3 -3 -12 -4 -19 -1 -8 3 -5 6 6 6 11 1 17 -2 13 -5z m40
-10 c-3 -3 -12 -4 -19 -1 -8 3 -5 6 6 6 11 1 17 -2 13 -5z m40 -10 c-3 -3 -12
-4 -19 -1 -8 3 -5 6 6 6 11 1 17 -2 13 -5z m70 -20 c-3 -3 -12 -4 -19 -1 -8 3
-5 6 6 6 11 1 17 -2 13 -5z m40 -10 c-3 -3 -12 -4 -19 -1 -8 3 -5 6 6 6 11 1
17 -2 13 -5z m40 -10 c-3 -3 -12 -4 -19 -1 -8 3 -5 6 6 6 11 1 17 -2 13 -5z
m58 -14 c13 -5 14 -9 5 -9 -8 0 -24 4 -35 9 -13 5 -14 9 -5 9 8 0 24 -4 35 -9z
m373 -64 c3 -5 -16 6 -42 24 -26 19 -50 39 -54 44 -3 5 16 -6 42 -24 26 -19
50 -39 54 -44z m-321 48 c-3 -3 -12 -4 -19 -1 -8 3 -5 6 6 6 11 1 17 -2 13 -5z
m40 -10 c-3 -3 -12 -4 -19 -1 -8 3 -5 6 6 6 11 1 17 -2 13 -5z m70 -20 c-3 -3
-12 -4 -19 -1 -8 3 -5 6 6 6 11 1 17 -2 13 -5z m40 -10 c-3 -3 -12 -4 -19 -1
-8 3 -5 6 6 6 11 1 17 -2 13 -5z m40 -10 c-3 -3 -12 -4 -19 -1 -8 3 -5 6 6 6
11 1 17 -2 13 -5z m210 -63 c-6 -2 -13 1 -15 7 -2 6 -9 10 -15 8 -7 -1 -9 -1
-4 1 4 3 -3 14 -15 25 -13 11 -4 7 19 -9 23 -15 37 -30 30 -32z m-140 43 c-3
-3 -12 -4 -19 -1 -8 3 -5 6 6 6 11 1 17 -2 13 -5z m40 -10 c-3 -3 -12 -4 -19
-1 -8 3 -5 6 6 6 11 1 17 -2 13 -5z m40 -10 c-3 -3 -12 -4 -19 -1 -8 3 -5 6 6
6 11 1 17 -2 13 -5z m-2392 -299 c61 -7 97 -13 80 -13 -16 -1 -91 5 -165 13
-164 18 -153 17 -144 3 4 -7 3 -8 -4 -4 -7 4 -12 12 -12 17 0 11 35 8 245 -16z
m-139 -137 c42 -68 84 -133 92 -145 8 -13 12 -23 9 -23 -3 0 -40 55 -83 123
-42 67 -84 132 -92 145 -8 12 -12 22 -9 22 3 0 40 -55 83 -122z m327 115 c-13
-2 -35 -2 -50 0 -16 2 -5 4 22 4 28 0 40 -2 28 -4z m100 -10 c-13 -2 -35 -2
-50 0 -16 2 -5 4 22 4 28 0 40 -2 28 -4z m207 -18 c58 -7 87 -12 65 -13 -22 0
-87 6 -145 13 -58 7 -87 12 -65 13 22 0 87 -6 145 -13z m250 -25 c47 -6 49 -7
15 -8 -22 0 -67 4 -100 8 -55 6 -56 7 -15 8 25 0 70 -3 100 -8z m133 -17 c-13
-2 -35 -2 -50 0 -16 2 -5 4 22 4 28 0 40 -2 28 -4z m126 -9 c31 -6 31 -7 29
-68 l-2 -61 -3 57 c-4 63 0 59 -98 71 -27 4 -27 4 6 6 20 0 51 -2 68 -5z m38
-351 c-2 -37 -3 -9 -3 62 0 72 1 102 3 68 2 -34 2 -93 0 -130z m-1036 82 l10
-20 -16 20 c-9 11 -21 29 -26 40 l-10 20 16 -20 c9 -11 21 -29 26 -40z m64
-99 l17 -31 -20 24 c-11 14 -27 38 -37 55 l-17 31 20 -24 c11 -14 27 -38 37
-55z m91 -143 c37 -60 74 -118 82 -130 8 -13 12 -23 9 -23 -3 0 -36 48 -73
108 -37 59 -74 117 -82 130 -8 12 -12 22 -9 22 3 0 36 -48 73 -107z m891 -130
c-2 -37 -3 -9 -3 62 0 72 1 102 3 68 2 -34 2 -93 0 -130z m-746 -100 c23 -38
49 -78 57 -90 8 -13 12 -23 9 -23 -3 0 -24 30 -48 68 -23 37 -49 77 -57 90 -8
12 -12 22 -9 22 3 0 24 -30 48 -67z m756 -190 c-2 -37 -3 -9 -3 62 0 72 1 102
3 68 2 -34 2 -93 0 -130z m-611 -40 c37 -60 74 -118 82 -130 8 -13 12 -23 9
-23 -3 0 -36 48 -73 108 -37 59 -74 117 -82 130 -8 12 -12 22 -9 22 3 0 36
-48 73 -107z m621 -250 c-2 -37 -3 -9 -3 62 0 72 1 102 3 68 2 -34 2 -93 0
-130z m-416 -75 c56 -90 109 -173 117 -185 8 -13 12 -23 9 -23 -3 0 -51 73
-108 163 -56 89 -109 172 -117 185 -8 12 -12 22 -9 22 3 0 51 -73 108 -162z
m426 -215 c-2 -37 -3 -9 -3 62 0 72 1 102 3 68 2 -34 2 -93 0 -130z m-186
-165 c56 -90 109 -173 117 -185 8 -13 12 -23 9 -23 -3 0 -51 73 -108 163 -56
89 -109 172 -117 185 -8 12 -12 22 -9 22 3 0 51 -73 108 -162z m196 -95 c-2
-32 -3 -8 -3 52 0 61 1 87 3 58 2 -29 2 -78 0 -110z m-30 -168 l28 -45 6 42
c6 42 6 41 7 -14 1 -32 0 -58 -2 -58 -2 0 -13 15 -24 33 -11 19 -27 46 -37 60
-9 15 -15 27 -12 27 3 0 18 -20 34 -45z"/>
<path d="M3552 12016 c29 -58 56 -102 62 -99 5 4 6 1 1 -7 -10 -16 85 -211 98
-203 6 4 7 1 2 -7 -10 -16 95 -231 108 -223 6 4 7 1 2 -7 -10 -16 75 -191 88
-183 6 4 7 1 2 -7 -10 -16 105 -251 118 -243 6 4 7 1 2 -7 -10 -16 75 -191 88
-183 6 4 7 1 2 -7 -10 -16 85 -211 98 -203 6 4 7 1 3 -6 -8 -13 12 -74 23 -69
4 2 51 51 104 110 91 100 120 138 80 107 -10 -8 20 28 66 79 46 50 86 92 89
92 3 0 -12 -19 -34 -42 -21 -24 -53 -59 -69 -79 -17 -19 9 6 57 55 80 83 114
129 71 95 -10 -8 20 28 66 79 46 50 86 92 89 92 3 0 -12 -19 -34 -42 -86 -93
-108 -118 -102 -118 8 0 348 376 348 385 0 3 -6 3 -12 -1 -7 -4 5 12 27 35 21
22 41 41 44 41 3 0 -10 -16 -29 -35 -19 -19 -31 -35 -28 -35 8 0 268 286 268
295 0 3 -6 3 -12 -1 -7 -4 5 12 27 35 21 22 41 41 44 41 3 0 -10 -16 -29 -35
-19 -19 -31 -35 -28 -35 5 0 206 220 381 418 l20 22 -1076 0 -1077 0 52 -104z
m2078 91 c0 -2 -12 -14 -27 -28 -25 -21 -26 -22 -9 -2 l19 23 -1044 3 -1044 2
1053 2 c578 2 1052 1 1052 0z m-2021 -172 c0 -5 -18 24 -39 65 -21 41 -39 80
-39 85 0 6 18 -24 39 -65 21 -41 39 -79 39 -85z m1931 70 c-24 -25 -46 -45
-49 -45 -3 0 15 20 39 45 24 25 46 45 49 45 3 0 -15 -20 -39 -45z m-90 -100
c-24 -25 -46 -45 -49 -45 -3 0 15 20 39 45 24 25 46 45 49 45 3 0 -15 -20 -39
-45z m-1751 -160 c0 -5 -15 19 -34 55 -19 36 -34 70 -34 75 0 6 15 -19 34 -55
19 -36 34 -69 34 -75z m1661 60 c-24 -25 -46 -45 -49 -45 -3 0 15 20 39 45 24
25 46 45 49 45 3 0 -15 -20 -39 -45z m-1571 -250 c0 -5 -11 10 -24 35 -13 25
-24 50 -24 55 0 6 11 -10 24 -35 13 -25 24 -49 24 -55z m1391 50 c-24 -25 -46
-45 -49 -45 -3 0 15 20 39 45 24 25 46 45 49 45 3 0 -15 -20 -39 -45z m-90
-100 c-24 -25 -46 -45 -49 -45 -3 0 15 20 39 45 24 25 46 45 49 45 3 0 -15
-20 -39 -45z m-1282 10 c-3 -3 -9 2 -12 12 -6 14 -5 15 5 6 7 -7 10 -15 7 -18z
m91 -190 c0 -5 -13 15 -29 45 -16 30 -29 60 -29 65 0 6 13 -15 29 -45 16 -30
29 -59 29 -65z m1011 -20 c-24 -25 -46 -45 -49 -45 -3 0 15 20 39 45 24 25 46
45 49 45 3 0 -15 -20 -39 -45z m-90 -100 c-24 -25 -46 -45 -49 -45 -3 0 15 20
39 45 24 25 46 45 49 45 3 0 -15 -20 -39 -45z m-821 -90 c0 -5 -13 15 -29 45
-16 30 -29 60 -29 65 0 6 13 -15 29 -45 16 -30 29 -59 29 -65z m100 -210 c0
-5 -11 10 -24 35 -13 25 -24 50 -24 55 0 6 11 -10 24 -35 13 -25 24 -49 24
-55z m55 -111 c3 -8 2 -12 -4 -9 -6 3 -10 10 -10 16 0 14 7 11 14 -7z m55
-119 c0 -5 -11 10 -24 35 -13 25 -24 50 -24 55 0 6 11 -10 24 -35 13 -25 24
-49 24 -55z m126 -10 c-43 -47 -79 -85 -81 -85 -1 0 -6 5 -10 12 -4 6 -3 8 3
5 6 -4 43 29 83 73 39 44 74 80 77 80 3 0 -30 -38 -72 -85z"/>
<path d="M1663 10139 c-8 -26 -598 -1740 -708 -2061 l-24 -68 50 26 c30 15 47
29 43 36 -4 7 -3 8 4 4 16 -10 134 52 126 66 -4 7 -3 8 4 4 16 -10 134 52 126
66 -4 7 -3 8 4 4 16 -10 114 42 106 56 -4 7 -3 8 4 4 16 -10 134 52 126 66 -4
7 -3 8 4 4 16 -10 134 52 126 66 -4 7 -3 8 4 4 16 -10 134 52 126 66 -4 7 -3
8 4 4 16 -10 134 52 126 66 -4 7 -3 8 4 4 14 -8 264 122 257 134 -3 5 0 12 6
16 8 4 9 3 5 -4 -4 -7 -2 -12 3 -12 6 0 11 2 11 5 0 3 -111 314 -246 693 -136
378 -254 709 -263 736 l-17 48 -11 -33z m22 -47 c-3 -3 -5 1 -5 9 0 12 -2 11
-11 -1 -9 -12 -10 -12 -5 3 3 10 6 24 7 30 0 7 5 1 10 -12 5 -13 7 -26 4 -29z
m-56 -111 c-17 -51 -33 -90 -35 -88 -2 2 10 45 27 96 17 51 33 90 35 88 2 -2
-10 -45 -27 -96z m95 19 c5 -17 4 -20 -2 -10 -5 8 -13 26 -16 40 -5 17 -4 20
2 10 5 -8 13 -26 16 -40z m50 -140 c5 -17 4 -20 -2 -10 -5 8 -13 26 -16 40 -5
17 -4 20 2 10 5 -8 13 -26 16 -40z m50 -140 c5 -20 3 -19 -8 5 -7 17 -16 41
-20 55 -5 20 -3 19 8 -5 7 -16 16 -41 20 -55z m-310 -74 c-20 -59 -38 -105
-40 -103 -2 2 12 52 32 111 20 59 38 105 40 103 2 -2 -12 -52 -32 -111z m360
-66 c5 -20 3 -19 -8 5 -7 17 -16 41 -20 55 -5 20 -3 19 8 -5 7 -16 16 -41 20
-55z m40 -110 c5 -17 4 -20 -2 -10 -5 8 -13 26 -16 40 -5 17 -4 20 2 10 5 -8
13 -26 16 -40z m-515 -159 c-17 -51 -33 -90 -35 -88 -2 2 10 45 27 96 17 51
33 90 35 88 2 -2 -10 -45 -27 -96z m575 -11 c5 -20 3 -19 -8 5 -7 17 -16 41
-20 55 -5 20 -3 19 8 -5 7 -16 16 -41 20 -55z m40 -110 c5 -17 4 -20 -2 -10
-5 8 -13 26 -16 40 -5 17 -4 20 2 10 5 -8 13 -26 16 -40z m-720 -184 c-20 -59
-38 -105 -40 -103 -2 2 12 52 32 111 20 59 38 105 40 103 2 -2 -12 -52 -32
-111z m770 44 c5 -17 4 -20 -2 -10 -5 8 -13 26 -16 40 -5 17 -4 20 2 10 5 -8
13 -26 16 -40z m60 -170 c5 -20 3 -19 -8 5 -7 17 -16 41 -20 55 -5 20 -3 19 8
-5 7 -16 16 -41 20 -55z m40 -110 c5 -17 4 -20 -2 -10 -5 8 -13 26 -16 40 -5
17 -4 20 2 10 5 -8 13 -26 16 -40z m-985 -99 c-12 -34 -23 -60 -25 -58 -2 2 6
32 17 66 12 34 23 60 25 58 2 -2 -6 -32 -17 -66z m961 4 c0 -2 -18 -14 -40
-25 -22 -11 -40 -18 -40 -15 0 2 17 13 38 24 42 23 42 23 42 16z m-110 -60 c0
-2 -22 -16 -50 -30 -27 -14 -50 -23 -50 -20 0 2 21 16 48 29 53 28 52 28 52
21z m-890 -52 c-11 -17 -11 -17 -6 0 3 10 6 24 7 30 0 9 2 9 5 0 3 -7 0 -20
-6 -30z m760 -18 c0 -2 -22 -16 -50 -30 -27 -14 -50 -23 -50 -20 0 2 21 16 48
29 53 28 52 28 52 21z m-130 -70 c0 -2 -22 -16 -50 -30 -27 -14 -50 -23 -50
-20 0 2 21 16 48 29 53 28 52 28 52 21z m-696 -109 c-14 -42 -28 -75 -30 -73
-2 2 8 38 22 81 14 42 28 75 30 73 2 -2 -8 -38 -22 -81z m566 39 c0 -2 -18
-14 -40 -25 -22 -11 -40 -18 -40 -15 0 2 17 13 38 24 42 23 42 23 42 16z
m-130 -70 c0 -2 -18 -14 -40 -25 -22 -11 -40 -18 -40 -15 0 2 17 13 38 24 42
23 42 23 42 16z m-480 -92 c-11 -17 -11 -17 -6 0 3 10 6 24 7 30 0 9 2 9 5 0
3 -7 0 -20 -6 -30z m350 22 c0 -2 -18 -14 -40 -25 -22 -11 -40 -18 -40 -15 0
2 17 13 38 24 42 23 42 23 42 16z m-130 -70 c0 -2 -18 -14 -40 -25 -22 -11
-40 -18 -40 -15 0 2 17 13 38 24 42 23 42 23 42 16z m-110 -60 c0 -2 -22 -16
-50 -30 -27 -14 -50 -23 -50 -20 0 2 21 16 48 29 53 28 52 28 52 21z m-149
-75 c10 6 19 8 19 6 0 -3 -13 -12 -30 -21 -32 -17 -34 -16 -23 11 4 11 8 13
11 6 2 -8 9 -9 23 -2z"/>
<path d="M1972 5006 c509 -1510 492 -1458 477 -1466 -17 -10 -1651 -1188
-1661 -1198 -4 -4 92 -340 213 -747 121 -407 223 -752 226 -768 4 -19 10 -26
22 -22 14 4 421 104 1586 390 171 41 327 80 348 86 l37 10 0 639 0 639 -376
486 c-207 268 -374 488 -372 490 1 2 273 -73 602 -166 330 -92 602 -167 604
-165 4 4 -776 1868 -785 1876 -3 3 -3 -5 0 -17 3 -13 2 -23 -3 -23 -4 0 -11
-16 -15 -36 -3 -20 -9 -34 -11 -31 -3 3 2 32 10 65 9 33 16 63 16 66 0 6 -569
293 -927 466 l-221 108 230 -682z m957 -21 c0 -5 -6 1 -14 15 -8 14 -14 30
-14 35 0 6 6 -1 14 -15 8 -14 14 -29 14 -35z m-85 -89 c-9 -37 -18 -65 -21
-63 -2 3 4 34 13 71 9 37 18 65 21 63 2 -3 -4 -34 -13 -71z m106 39 c0 -5 -5
-3 -10 5 -5 8 -10 20 -10 25 0 6 5 3 10 -5 5 -8 10 -19 10 -25z m30 -70 c0 -5
-5 -3 -10 5 -5 8 -10 20 -10 25 0 6 5 3 10 -5 5 -8 10 -19 10 -25z m20 -50 c0
-5 -5 -3 -10 5 -5 8 -10 20 -10 25 0 6 5 3 10 -5 5 -8 10 -19 10 -25z m-191
-49 c-6 -26 -13 -45 -16 -43 -2 3 1 26 8 51 6 26 13 45 16 43 2 -3 -1 -26 -8
-51z m221 -21 c0 -5 -5 -3 -10 5 -5 8 -10 20 -10 25 0 6 5 3 10 -5 5 -8 10
-19 10 -25z m29 -70 c0 -5 -6 1 -14 15 -8 14 -14 30 -14 35 0 6 6 -1 14 -15 8
-14 14 -29 14 -35z m-272 13 c-3 -8 -6 -5 -6 6 -1 11 2 17 5 13 3 -3 4 -12 1
-19z m-18 -72 c-6 -26 -13 -45 -16 -43 -2 3 1 26 8 51 6 26 13 45 16 43 2 -3
-1 -26 -8 -51z m311 9 c0 -5 -5 -3 -10 5 -5 8 -10 20 -10 25 0 6 5 3 10 -5 5
-8 10 -19 10 -25z m29 -70 c0 -5 -6 1 -14 15 -8 14 -14 30 -14 35 0 6 6 -1 14
-15 8 -14 14 -29 14 -35z m-370 -49 c-6 -26 -13 -45 -16 -43 -2 3 1 26 8 51 6
26 13 45 16 43 2 -3 -1 -26 -8 -51z m400 -21 c0 -5 -6 1 -14 15 -8 14 -14 30
-14 35 0 6 6 -1 14 -15 8 -14 14 -29 14 -35z m21 -50 c0 -5 -5 -3 -10 5 -5 8
-10 20 -10 25 0 6 5 3 10 -5 5 -8 10 -19 10 -25z m-443 -7 c-3 -8 -6 -5 -6 6
-1 11 2 17 5 13 3 -3 4 -12 1 -19z m472 -63 c0 -5 -6 1 -14 15 -8 14 -14 30
-14 35 0 6 6 -1 14 -15 8 -14 14 -29 14 -35z m-490 -9 c-6 -26 -13 -45 -16
-43 -2 3 1 26 8 51 6 26 13 45 16 43 2 -3 -1 -26 -8 -51z m511 -41 c0 -5 -5
-3 -10 5 -5 8 -10 20 -10 25 0 6 5 3 10 -5 5 -8 10 -19 10 -25z m-541 -69 c-6
-26 -13 -45 -16 -43 -2 3 1 26 8 51 6 26 13 45 16 43 2 -3 -1 -26 -8 -51z
m571 -1 c0 -5 -5 -3 -10 5 -5 8 -10 20 -10 25 0 6 5 3 10 -5 5 -8 10 -19 10
-25z m-606 -129 c-9 -37 -18 -65 -21 -63 -2 3 4 34 13 71 9 37 18 65 21 63 2
-3 -4 -34 -13 -71z m656 9 c0 -5 -5 -3 -10 5 -5 8 -10 20 -10 25 0 6 5 3 10
-5 5 -8 10 -19 10 -25z m30 -70 c0 -5 -5 -3 -10 5 -5 8 -10 20 -10 25 0 6 5 3
10 -5 5 -8 10 -19 10 -25z m-721 -69 c-6 -26 -13 -45 -16 -43 -2 3 1 26 8 51
6 26 13 45 16 43 2 -3 -1 -26 -8 -51z m741 19 c0 -5 -5 -3 -10 5 -5 8 -10 20
-10 25 0 6 5 3 10 -5 5 -8 10 -19 10 -25z m30 -70 c0 -5 -5 -3 -10 5 -5 8 -10
20 -10 25 0 6 5 3 10 -5 5 -8 10 -19 10 -25z m-801 -59 c-6 -26 -13 -45 -16
-43 -2 3 1 26 8 51 6 26 13 45 16 43 2 -3 -1 -26 -8 -51z m821 9 c0 -5 -5 -3
-10 5 -5 8 -10 20 -10 25 0 6 5 3 10 -5 5 -8 10 -19 10 -25z m30 -70 c0 -5 -5
-3 -10 5 -5 8 -10 20 -10 25 0 6 5 3 10 -5 5 -8 10 -19 10 -25z m-873 -17 c-3
-8 -6 -5 -6 6 -1 11 2 17 5 13 3 -3 4 -12 1 -19z m902 -53 c0 -5 -6 1 -14 15
-8 14 -14 30 -14 35 0 6 6 -1 14 -15 8 -14 14 -29 14 -35z m-920 -19 c-6 -26
-13 -45 -16 -43 -2 3 1 26 8 51 6 26 13 45 16 43 2 -3 -1 -26 -8 -51z m941
-31 c0 -5 -5 -3 -10 5 -5 8 -10 20 -10 25 0 6 5 3 10 -5 5 -8 10 -19 10 -25z
m-971 -79 c-6 -25 -15 -48 -19 -51 -4 -2 0 20 8 50 18 66 28 67 11 1z m1001 9
c0 -5 -5 -3 -10 5 -5 8 -10 20 -10 25 0 6 5 3 10 -5 5 -8 10 -19 10 -25z
m-953 -81 c-3 -3 -12 -4 -19 -1 -8 3 -5 6 6 6 11 1 17 -2 13 -5z m40 -10 c-3
-3 -12 -4 -19 -1 -8 3 -5 6 6 6 11 1 17 -2 13 -5z m963 -29 c0 -5 -5 -3 -10 5
-5 8 -10 20 -10 25 0 6 5 3 10 -5 5 -8 10 -19 10 -25z m-893 9 c-3 -3 -12 -4
-19 -1 -8 3 -5 6 6 6 11 1 17 -2 13 -5z m70 -20 c-3 -3 -12 -4 -19 -1 -8 3 -5
6 6 6 11 1 17 -2 13 -5z m843 -39 c0 -5 -5 -3 -10 5 -5 8 -10 20 -10 25 0 6 5
3 10 -5 5 -8 10 -19 10 -25z m-773 19 c-3 -3 -12 -4 -19 -1 -8 3 -5 6 6 6 11
1 17 -2 13 -5z m70 -20 c-3 -3 -12 -4 -19 -1 -8 3 -5 6 6 6 11 1 17 -2 13 -5z
m40 -10 c-3 -3 -12 -4 -19 -1 -8 3 -5 6 6 6 11 1 17 -2 13 -5z m70 -20 c-3 -3
-12 -4 -19 -1 -8 3 -5 6 6 6 11 1 17 -2 13 -5z m623 -39 c0 -5 -5 -3 -10 5 -5
8 -10 20 -10 25 0 6 5 3 10 -5 5 -8 10 -19 10 -25z m-553 19 c-3 -3 -12 -4
-19 -1 -8 3 -5 6 6 6 11 1 17 -2 13 -5z m70 -20 c-3 -3 -12 -4 -19 -1 -8 3 -5
6 6 6 11 1 17 -2 13 -5z m70 -20 c-3 -3 -12 -4 -19 -1 -8 3 -5 6 6 6 11 1 17
-2 13 -5z m40 -10 c-3 -3 -12 -4 -19 -1 -8 3 -5 6 6 6 11 1 17 -2 13 -5z m403
-39 c0 -5 -5 -3 -10 5 -5 8 -10 20 -10 25 0 6 5 3 10 -5 5 -8 10 -19 10 -25z
m-333 19 c-3 -3 -12 -4 -19 -1 -8 3 -5 6 6 6 11 1 17 -2 13 -5z m70 -20 c-3
-3 -12 -4 -19 -1 -8 3 -5 6 6 6 11 1 17 -2 13 -5z m70 -20 c-3 -3 -12 -4 -19
-1 -8 3 -5 6 6 6 11 1 17 -2 13 -5z m213 -29 c0 -5 -5 -3 -10 5 -5 8 -10 20
-10 25 0 6 5 3 10 -5 5 -8 10 -19 10 -25z m-143 9 c-3 -3 -12 -4 -19 -1 -8 3
-5 6 6 6 11 1 17 -2 13 -5z m40 -10 c-3 -3 -12 -4 -19 -1 -8 3 -5 6 6 6 11 1
17 -2 13 -5z m70 -20 c-3 -3 -12 -4 -19 -1 -8 3 -5 6 6 6 11 1 17 -2 13 -5z
m46 -8 c4 -10 0 -12 -15 -8 -15 4 -17 7 -6 13 17 11 15 11 21 -5z m-483 -680
c0 -2 -60 -57 -132 -122 -73 -65 -127 -111 -119 -101 8 10 64 62 124 115 108
95 109 97 81 103 -27 6 -27 7 9 8 20 0 37 -1 37 -3z m-190 -22 c-63 -7 -133
-12 -155 -12 -53 1 156 25 220 25 28 0 -2 -5 -65 -13z m-250 -24 c-30 -5 -75
-8 -100 -7 -45 0 -45 0 10 7 30 4 75 7 100 7 44 0 44 0 -10 -7z m-200 -20
c-30 -5 -73 -8 -95 -7 -38 0 -38 0 10 7 28 4 70 7 95 7 44 0 44 0 -10 -7z
m-250 -26 c-63 -7 -133 -12 -155 -12 -53 1 156 25 220 25 28 0 -2 -5 -65 -13z
m-250 -24 c-30 -5 -75 -8 -100 -7 -45 0 -45 0 10 7 30 4 75 7 100 7 44 0 44 0
-10 -7z m-200 -20 c-30 -5 -75 -8 -100 -7 -45 0 -45 0 10 7 30 4 75 7 100 7
44 0 44 0 -10 -7z m-167 -17 c-13 -2 -35 -2 -50 0 -16 2 -5 4 22 4 28 0 40 -2
28 -4z m-133 -13 c-30 -5 -75 -8 -100 -7 -45 0 -45 0 10 7 30 4 75 7 100 7 44
0 44 0 -10 -7z m-200 -20 c-30 -5 -75 -8 -100 -7 -45 0 -45 0 10 7 30 4 75 7
100 7 44 0 44 0 -10 -7z m-167 -17 c-13 -2 -35 -2 -50 0 -16 2 -5 4 22 4 28 0
40 -2 28 -4z m-100 -10 c-13 -2 -35 -2 -50 0 -16 2 -5 4 22 4 28 0 40 -2 28
-4z m-100 -10 c-13 -2 -35 -2 -50 0 -16 2 -5 4 22 4 28 0 40 -2 28 -4z m-105
-10 c-16 -2 -40 -2 -55 0 -16 2 -3 4 27 4 30 0 43 -2 28 -4z m2042 -7 c0 -5
-320 -292 -1225 -1100 -414 -370 -477 -425 -372 -326 71 67 1590 1428 1595
1429 1 1 2 -1 2 -3z m-2081 -86 c0 -9 -4 -8 -9 5 -5 11 -9 27 -9 35 0 9 4 8 9
-5 5 -11 9 -27 9 -35z m30 -100 c0 -9 -4 -8 -9 5 -5 11 -9 27 -9 35 0 9 4 8 9
-5 5 -11 9 -27 9 -35z m30 -100 c0 -9 -4 -8 -9 5 -5 11 -9 27 -9 35 0 9 4 8 9
-5 5 -11 9 -27 9 -35z m29 -100 c0 -8 -6 1 -13 20 -7 19 -13 42 -13 50 0 8 6
-1 13 -20 7 -19 13 -42 13 -50z m21 -70 c0 -9 -4 -8 -9 5 -5 11 -9 27 -9 35 0
9 4 8 9 -5 5 -11 9 -27 9 -35z m30 -100 c0 -9 -4 -8 -9 5 -5 11 -9 27 -9 35 0
9 4 8 9 -5 5 -11 9 -27 9 -35z m30 -100 c0 -9 -4 -8 -9 5 -5 11 -9 27 -9 35 0
9 4 8 9 -5 5 -11 9 -27 9 -35z m29 -100 c0 -8 -6 1 -13 20 -7 19 -13 42 -13
50 0 8 6 -1 13 -20 7 -19 13 -42 13 -50z m21 -70 c0 -9 -4 -8 -9 5 -5 11 -9
27 -9 35 0 9 4 8 9 -5 5 -11 9 -27 9 -35z m30 -100 c0 -9 -4 -8 -9 5 -5 11 -9
27 -9 35 0 9 4 8 9 -5 5 -11 9 -27 9 -35z m30 -100 c0 -9 -4 -8 -9 5 -5 11 -9
27 -9 35 0 9 4 8 9 -5 5 -11 9 -27 9 -35z m30 -100 c0 -9 -4 -8 -9 5 -5 11 -9
27 -9 35 0 9 4 8 9 -5 5 -11 9 -27 9 -35z m29 -100 c0 -8 -6 1 -13 20 -7 19
-13 42 -13 50 0 8 6 -1 13 -20 7 -19 13 -42 13 -50z m21 -70 c0 -9 -4 -8 -9 5
-5 11 -9 27 -9 35 0 9 4 8 9 -5 5 -11 9 -27 9 -35z m30 -100 c0 -9 -4 -8 -9 5
-5 11 -9 27 -9 35 0 9 4 8 9 -5 5 -11 9 -27 9 -35z m18 -72 c-3 -8 -6 -5 -6 6
-1 11 2 17 5 13 3 -3 4 -12 1 -19z"/>
<path d="M3554 4780 c12 -99 136 -1484 138 -1535 l2 -50 -167 -218 c-92 -120
-167 -220 -167 -223 0 -3 5 -2 10 1 16 10 11 -1 -7 -16 -15 -12 -16 -12 -9 1
8 13 7 13 -6 0 -27 -27 -118 -149 -118 -158 0 -7 2271 -484 2277 -479 7 8
-359 217 -369 211 -6 -4 -8 -3 -5 3 9 14 -129 96 -145 87 -6 -4 -8 -3 -5 3 9
14 -279 186 -295 177 -6 -4 -8 -3 -5 3 4 6 -211 141 -488 308 -272 164 -495
301 -495 304 0 4 100 -1 223 -11 994 -77 1561 -118 1569 -116 5 2 -408 379
-919 838 -510 459 -950 855 -976 880 l-49 45 6 -55z m23 -82 c-2 -13 -4 -3 -4
22 0 25 2 35 4 23 2 -13 2 -33 0 -45z m10 -110 c-2 -13 -4 -3 -4 22 0 25 2 35
4 23 2 -13 2 -33 0 -45z m10 -110 c-2 -13 -4 -3 -4 22 0 25 2 35 4 23 2 -13 2
-33 0 -45z m10 -110 c-2 -13 -4 -3 -4 22 0 25 2 35 4 23 2 -13 2 -33 0 -45z
m10 -110 c-2 -13 -4 -5 -4 17 -1 22 1 32 4 23 2 -10 2 -28 0 -40z m10 -115
c-2 -16 -4 -3 -4 27 0 30 2 43 4 28 2 -16 2 -40 0 -55z m10 -105 c-2 -13 -4
-3 -4 22 0 25 2 35 4 23 2 -13 2 -33 0 -45z m10 -115 c-2 -16 -4 -5 -4 22 0
28 2 40 4 28 2 -13 2 -35 0 -50z m10 -105 c-2 -13 -4 -3 -4 22 0 25 2 35 4 23
2 -13 2 -33 0 -45z m10 -110 c-2 -13 -4 -3 -4 22 0 25 2 35 4 23 2 -13 2 -33
0 -45z m10 -110 c-2 -13 -4 -3 -4 22 0 25 2 35 4 23 2 -13 2 -33 0 -45z m10
-110 c-2 -13 -4 -3 -4 22 0 25 2 35 4 23 2 -13 2 -33 0 -45z m10 -105 c-2 -16
-4 -5 -4 22 0 28 2 40 4 28 2 -13 2 -35 0 -50z m10 -105 c-2 -13 -4 -3 -4 22
0 25 2 35 4 23 2 -13 2 -33 0 -45z m93 -62 c8 -2 -9 -4 -37 -5 -29 0 -53 3
-53 7 0 7 52 6 90 -2z m123 -13 c-13 -2 -35 -2 -50 0 -16 2 -5 4 22 4 28 0 40
-2 28 -4z m125 -10 c-16 -2 -40 -2 -55 0 -16 2 -3 4 27 4 30 0 43 -2 28 -4z
m135 -10 c-13 -2 -35 -2 -50 0 -16 2 -5 4 22 4 28 0 40 -2 28 -4z m-457 -19
c18 -14 18 -15 -5 -4 -20 11 -26 8 -53 -22 l-29 -33 26 38 c31 42 34 43 61 21z
m587 9 c-13 -2 -35 -2 -50 0 -16 2 -5 4 22 4 28 0 40 -2 28 -4z m135 -10 c-16
-2 -40 -2 -55 0 -16 2 -3 4 27 4 30 0 43 -2 28 -4z m135 -10 c-13 -2 -35 -2
-50 0 -16 2 -5 4 22 4 28 0 40 -2 28 -4z m-793 -29 c0 -2 -9 0 -20 6 -11 6
-20 13 -20 16 0 2 9 0 20 -6 11 -6 20 -13 20 -16z m918 19 c-16 -2 -40 -2 -55
0 -16 2 -3 4 27 4 30 0 43 -2 28 -4z m135 -10 c-13 -2 -35 -2 -50 0 -16 2 -5
4 22 4 28 0 40 -2 28 -4z m125 -10 c-16 -2 -40 -2 -55 0 -16 2 -3 4 27 4 30 0
43 -2 28 -4z m-1128 -29 c0 -2 -9 0 -20 6 -11 6 -20 13 -20 16 0 2 9 0 20 -6
11 -6 20 -13 20 -16z m1263 19 c-13 -2 -35 -2 -50 0 -16 2 -5 4 22 4 28 0 40
-2 28 -4z m130 -10 c-13 -2 -35 -2 -50 0 -16 2 -5 4 22 4 28 0 40 -2 28 -4z
m-1638 -63 c-25 -33 -48 -60 -51 -60 -3 0 16 27 41 60 25 33 48 60 51 60 3 0
-16 -27 -41 -60z m1773 53 c-16 -2 -40 -2 -55 0 -16 2 -3 4 27 4 30 0 43 -2
28 -4z m-1478 -29 c0 -2 -9 0 -20 6 -11 6 -20 13 -20 16 0 2 9 0 20 -6 11 -6
20 -13 20 -16z m1583 19 c-7 -2 -21 -2 -30 0 -10 3 -4 5 12 5 17 0 24 -2 18
-5z m-1533 -49 c0 -2 -9 0 -20 6 -11 6 -20 13 -20 16 0 2 9 0 20 -6 11 -6 20
-13 20 -16z m50 -30 c0 -2 -9 0 -20 6 -11 6 -20 13 -20 16 0 2 9 0 20 -6 11
-6 20 -13 20 -16z m50 -30 c0 -2 -9 0 -20 6 -11 6 -20 13 -20 16 0 2 9 0 20
-6 11 -6 20 -13 20 -16z m-520 -34 c-11 -16 -26 -33 -32 -36 -7 -4 1 9 16 29
34 44 46 50 16 7z m570 4 c0 -2 -9 0 -20 6 -11 6 -20 13 -20 16 0 2 9 0 20 -6
11 -6 20 -13 20 -16z m50 -30 c0 -2 -9 0 -20 6 -11 6 -20 13 -20 16 0 2 9 0
20 -6 11 -6 20 -13 20 -16z m50 -30 c0 -2 -9 0 -20 6 -11 6 -20 13 -20 16 0 2
9 0 20 -6 11 -6 20 -13 20 -16z m-755 -54 c-25 -33 -48 -60 -51 -60 -3 0 16
27 41 60 25 33 48 60 51 60 3 0 -16 -27 -41 -60z m805 24 c0 -2 -9 0 -20 6
-11 6 -20 13 -20 16 0 2 9 0 20 -6 11 -6 20 -13 20 -16z m50 -30 c0 -2 -9 0
-20 6 -11 6 -20 13 -20 16 0 2 9 0 20 -6 11 -6 20 -13 20 -16z m50 -30 c0 -2
-9 0 -20 6 -11 6 -20 13 -20 16 0 2 9 0 20 -6 11 -6 20 -13 20 -16z m50 -30
c0 -2 -9 0 -20 6 -11 6 -20 13 -20 16 0 2 9 0 20 -6 11 -6 20 -13 20 -16z m50
-30 c0 -2 -9 0 -20 6 -11 6 -20 13 -20 16 0 2 9 0 20 -6 11 -6 20 -13 20 -16z
m50 -30 c0 -2 -9 0 -20 6 -11 6 -20 13 -20 16 0 2 9 0 20 -6 11 -6 20 -13 20
-16z m-1184 -43 c-25 -33 -46 -64 -46 -70 0 -6 -5 -11 -11 -11 -5 0 -7 6 -3
13 15 24 95 127 100 127 3 0 -15 -27 -40 -59z m1234 13 c0 -2 -9 0 -20 6 -11
6 -20 13 -20 16 0 2 9 0 20 -6 11 -6 20 -13 20 -16z m50 -30 c0 -2 -9 0 -20 6
-11 6 -20 13 -20 16 0 2 9 0 20 -6 11 -6 20 -13 20 -16z m50 -30 c0 -2 -9 0
-20 6 -11 6 -20 13 -20 16 0 2 9 0 20 -6 11 -6 20 -13 20 -16z m-1333 -40 c-3
-3 -12 -4 -19 -1 -8 3 -5 6 6 6 11 1 17 -2 13 -5z m1433 -20 c0 -2 -9 0 -20 6
-11 6 -20 13 -20 16 0 2 9 0 20 -6 11 -6 20 -13 20 -16z m-1383 10 c-3 -3 -12
-4 -19 -1 -8 3 -5 6 6 6 11 1 17 -2 13 -5z m50 -10 c-3 -3 -12 -4 -19 -1 -8 3
-5 6 6 6 11 1 17 -2 13 -5z m46 -11 c-7 -2 -19 -2 -25 0 -7 3 -2 5 12 5 14 0
19 -2 13 -5z m1337 -19 c0 -2 -9 0 -20 6 -11 6 -20 13 -20 16 0 2 9 0 20 -6
11 -6 20 -13 20 -16z m-1293 10 c-3 -3 -12 -4 -19 -1 -8 3 -5 6 6 6 11 1 17
-2 13 -5z m50 -10 c-3 -3 -12 -4 -19 -1 -8 3 -5 6 6 6 11 1 17 -2 13 -5z m50
-10 c-3 -3 -12 -4 -19 -1 -8 3 -5 6 6 6 11 1 17 -2 13 -5z m1243 -20 c0 -2 -9
0 -20 6 -11 6 -20 13 -20 16 0 2 9 0 20 -6 11 -6 20 -13 20 -16z m-1193 10
c-3 -3 -12 -4 -19 -1 -8 3 -5 6 6 6 11 1 17 -2 13 -5z m50 -10 c-3 -3 -12 -4
-19 -1 -8 3 -5 6 6 6 11 1 17 -2 13 -5z m40 -10 c-3 -3 -12 -4 -19 -1 -8 3 -5
6 6 6 11 1 17 -2 13 -5z m1168 -29 l20 -16 -20 10 c-11 5 -29 17 -40 26 l-20
16 20 -10 c11 -5 29 -17 40 -26z m-1118 19 c-3 -3 -12 -4 -19 -1 -8 3 -5 6 6
6 11 1 17 -2 13 -5z m50 -10 c-3 -3 -12 -4 -19 -1 -8 3 -5 6 6 6 11 1 17 -2
13 -5z m50 -10 c-3 -3 -12 -4 -19 -1 -8 3 -5 6 6 6 11 1 17 -2 13 -5z m50 -10
c-3 -3 -12 -4 -19 -1 -8 3 -5 6 6 6 11 1 17 -2 13 -5z m1033 -30 c0 -2 -9 0
-20 6 -11 6 -20 13 -20 16 0 2 9 0 20 -6 11 -6 20 -13 20 -16z m-943 10 c-3
-3 -12 -4 -19 -1 -8 3 -5 6 6 6 11 1 17 -2 13 -5z m50 -10 c-3 -3 -12 -4 -19
-1 -8 3 -5 6 6 6 11 1 17 -2 13 -5z m50 -10 c-3 -3 -12 -4 -19 -1 -8 3 -5 6 6
6 11 1 17 -2 13 -5z m50 -10 c-3 -3 -12 -4 -19 -1 -8 3 -5 6 6 6 11 1 17 -2
13 -5z m878 -29 l20 -16 -20 10 c-11 5 -29 17 -40 26 l-20 16 20 -10 c11 -5
29 -17 40 -26z m-832 18 c-7 -2 -19 -2 -25 0 -7 3 -2 5 12 5 14 0 19 -2 13 -5z
m44 -9 c-3 -3 -12 -4 -19 -1 -8 3 -5 6 6 6 11 1 17 -2 13 -5z m50 -10 c-3 -3
-12 -4 -19 -1 -8 3 -5 6 6 6 11 1 17 -2 13 -5z m50 -10 c-3 -3 -12 -4 -19 -1
-8 3 -5 6 6 6 11 1 17 -2 13 -5z m50 -10 c-3 -3 -12 -4 -19 -1 -8 3 -5 6 6 6
11 1 17 -2 13 -5z m703 -20 c0 -2 -9 0 -20 6 -11 6 -20 13 -20 16 0 2 9 0 20
-6 11 -6 20 -13 20 -16z m-657 9 c-7 -2 -19 -2 -25 0 -7 3 -2 5 12 5 14 0 19
-2 13 -5z m44 -9 c-3 -3 -12 -4 -19 -1 -8 3 -5 6 6 6 11 1 17 -2 13 -5z m50
-10 c-3 -3 -12 -4 -19 -1 -8 3 -5 6 6 6 11 1 17 -2 13 -5z m50 -10 c-3 -3 -12
-4 -19 -1 -8 3 -5 6 6 6 11 1 17 -2 13 -5z m50 -10 c-3 -3 -12 -4 -19 -1 -8 3
-5 6 6 6 11 1 17 -2 13 -5z m50 -10 c-3 -3 -12 -4 -19 -1 -8 3 -5 6 6 6 11 1
17 -2 13 -5z m513 -20 c0 -2 -9 0 -20 6 -11 6 -20 13 -20 16 0 2 9 0 20 -6 11
-6 20 -13 20 -16z m-473 10 c-3 -3 -12 -4 -19 -1 -8 3 -5 6 6 6 11 1 17 -2 13
-5z m50 -10 c-3 -3 -12 -4 -19 -1 -8 3 -5 6 6 6 11 1 17 -2 13 -5z m50 -10
c-3 -3 -12 -4 -19 -1 -8 3 -5 6 6 6 11 1 17 -2 13 -5z m423 -20 c0 -2 -9 0
-20 6 -11 6 -20 13 -20 16 0 2 9 0 20 -6 11 -6 20 -13 20 -16z m-373 10 c-3
-3 -12 -4 -19 -1 -8 3 -5 6 6 6 11 1 17 -2 13 -5z m50 -10 c-3 -3 -12 -4 -19
-1 -8 3 -5 6 6 6 11 1 17 -2 13 -5z m40 -10 c-3 -3 -12 -4 -19 -1 -8 3 -5 6 6
6 11 1 17 -2 13 -5z m333 -20 c0 -2 -9 0 -20 6 -11 6 -20 13 -20 16 0 2 9 0
20 -6 11 -6 20 -13 20 -16z m-283 10 c-3 -3 -12 -4 -19 -1 -8 3 -5 6 6 6 11 1
17 -2 13 -5z m50 -10 c-3 -3 -12 -4 -19 -1 -8 3 -5 6 6 6 11 1 17 -2 13 -5z
m50 -10 c-3 -3 -12 -4 -19 -1 -8 3 -5 6 6 6 11 1 17 -2 13 -5z m233 -20 c0 -2
-9 0 -20 6 -11 6 -20 13 -20 16 0 2 9 0 20 -6 11 -6 20 -13 20 -16z m-183 10
c-3 -3 -12 -4 -19 -1 -8 3 -5 6 6 6 11 1 17 -2 13 -5z m40 -10 c-3 -3 -12 -4
-19 -1 -8 3 -5 6 6 6 11 1 17 -2 13 -5z m50 -10 c-3 -3 -12 -4 -19 -1 -8 3 -5
6 6 6 11 1 17 -2 13 -5z m179 -41 c-1 -1 -15 2 -32 6 -16 5 -25 10 -20 10 6 1
1 8 -10 17 -10 8 0 5 23 -8 23 -12 41 -24 39 -25z m-129 31 c-3 -3 -12 -4 -19
-1 -8 3 -5 6 6 6 11 1 17 -2 13 -5z m50 -10 c-3 -3 -12 -4 -19 -1 -8 3 -5 6 6
6 11 1 17 -2 13 -5z"/>
</g>
</svg>
